<?xml version="1.0" encoding="UTF-8" standalone="no"?>
<!-- Created with Inkscape (http://www.inkscape.org/) -->

<svg
   width="48"
   height="48"
   viewBox="0 0 12.7 12.7"
   version="1.1"
   id="svg1"
   sodipodi:docname="logo.svg"
   inkscape:version="1.4 (e7c3feb1, 2024-10-09)"
   inkscape:export-filename="../apps/desktop/assets/logo-44.png"
   inkscape:export-xdpi="88"
   inkscape:export-ydpi="88"
   xmlns:inkscape="http://www.inkscape.org/namespaces/inkscape"
   xmlns:sodipodi="http://sodipodi.sourceforge.net/DTD/sodipodi-0.dtd"
   xmlns="http://www.w3.org/2000/svg"
   xmlns:svg="http://www.w3.org/2000/svg">
  <sodipodi:namedview
     id="namedview1"
     pagecolor="#505050"
     bordercolor="#eeeeee"
     borderopacity="1"
     inkscape:showpageshadow="0"
     inkscape:pageopacity="0"
     inkscape:pagecheckerboard="0"
     inkscape:deskcolor="#505050"
     inkscape:document-units="px"
     showguides="true"
     inkscape:zoom="7.1274562"
     inkscape:cx="17.257209"
     inkscape:cy="34.514418"
     inkscape:window-width="1728"
     inkscape:window-height="1051"
     inkscape:window-x="0"
     inkscape:window-y="38"
     inkscape:window-maximized="1"
     inkscape:current-layer="layer1"
     showgrid="false" />
  <defs
     id="defs1">
    <linearGradient
       id="swatch3"
       inkscape:swatch="solid">
      <stop
         style="stop-color:#000000;stop-opacity:1;"
         offset="0"
         id="stop3" />
    </linearGradient>
  </defs>
  <g
     inkscape:label="Layer 1"
     inkscape:groupmode="layer"
     id="layer1"
     style="display:inline">
    <rect
       style="display:none;fill:#000000;fill-opacity:0.35;stroke:#000000;stroke-width:0;stroke-linecap:butt;stroke-linejoin:round;stroke-dasharray:none;stroke-opacity:0.169231;paint-order:stroke markers fill"
       id="rect2"
       width="3.7013698"
       height="3.7013693"
       x="1.0597317"
       y="-4.7611012"
       rx="0.61969829"
       ry="0.61969829"
       transform="scale(1,-1)" />
    <rect
       style="display:none;fill:#000000;fill-opacity:0;stroke:#000000;stroke-width:0.264583;stroke-linecap:butt;stroke-linejoin:round;stroke-dasharray:none;stroke-opacity:0.169231;paint-order:stroke markers fill"
       id="rect2-2"
       width="3.7013698"
       height="3.7013693"
       x="-0.13229188"
       y="-4.891994"
       rx="0.61969829"
       ry="0.61969829"
       transform="scale(1,-1)" />
    <g
       id="g7"
       style="display:none">
      <text
         xml:space="preserve"
         style="font-style:normal;font-variant:normal;font-weight:bold;font-stretch:normal;font-size:4.93889px;font-family:Sans;-inkscape-font-specification:'Sans Bold';text-align:start;writing-mode:lr-tb;direction:ltr;text-anchor:start;display:inline;fill:#000000;fill-opacity:1;stroke:none;stroke-width:0;stroke-linecap:butt;stroke-linejoin:round;stroke-dasharray:none;stroke-opacity:1;paint-order:stroke markers fill"
         x="1.3055185"
         y="4.2645116"
         id="text3"><tspan
           sodipodi:role="line"
           id="tspan3"
           style="font-style:normal;font-variant:normal;font-weight:bold;font-stretch:normal;font-size:4.93889px;font-family:Sans;-inkscape-font-specification:'Sans Bold';fill:#000000;fill-opacity:1;stroke:none;stroke-width:0;stroke-dasharray:none"
           x="1.3055185"
           y="4.2645116">v</tspan></text>
      <path
         style="fill:#000000;fill-opacity:1;stroke:none;stroke-width:0.264583;stroke-linecap:butt;stroke-linejoin:round;stroke-dasharray:none;stroke-opacity:1;paint-order:stroke markers fill"
         d="M 1.3727933,1.5520367 2.5966182,4.7446511 3.2047963,4.7403384 3.2306752,4.7101452 2.7648365,3.4247761 Z"
         id="path3" />
      <path
         style="fill:#000000;fill-opacity:1;stroke:none;stroke-width:0.264583;stroke-linecap:butt;stroke-linejoin:round;stroke-dasharray:none;stroke-opacity:1;paint-order:stroke markers fill"
         d="M 4.436403,1.5592115 3.2125781,4.7518259 2.6044,4.7475132 2.5785211,4.71732 3.0443598,3.4319509 Z"
         id="path3-5"
         inkscape:label="path3-5" />
      <path
         style="fill:#000000;fill-opacity:1;stroke:none;stroke-width:0.264583;stroke-linecap:butt;stroke-linejoin:round;stroke-dasharray:none;stroke-opacity:1;paint-order:stroke markers fill"
         d="M 1.4200683,1.6743164 1.2619384,1.2567708 1.690532,1.0487373 2.1501138,1.0750569 1.9577778,1.803909 Z"
         id="path4" />
      <path
         style="fill:#000000;fill-opacity:1;stroke:none;stroke-width:0.264583;stroke-linecap:butt;stroke-linejoin:round;stroke-dasharray:none;stroke-opacity:1;paint-order:stroke markers fill"
         d="M 2.4225911,1.9357991 2.141196,1.0936616 1.9477593,1.1338369 1.8793124,1.6754598 Z"
         id="path5" />
      <path
         style="fill:#000000;fill-opacity:1;stroke:none;stroke-width:0.264583;stroke-linecap:butt;stroke-linejoin:round;stroke-dasharray:none;stroke-opacity:1;paint-order:stroke markers fill"
         d="M 7.3018799,1.1547458 7.14375,0.73720016 7.5723436,0.52916666 8.0319254,0.55548626 7.8395894,1.2843384 Z"
         id="path4-8" />
      <path
         style="fill:#000000;fill-opacity:1;stroke:none;stroke-width:0.264583;stroke-linecap:butt;stroke-linejoin:round;stroke-dasharray:none;stroke-opacity:1;paint-order:stroke markers fill"
         d="M 8.3044027,1.4162285 8.0230076,0.57409096 7.8295709,0.61426626 7.761124,1.1558892 Z"
         id="path5-5" />
      <path
         style="fill:#000000;fill-opacity:1;stroke:none;stroke-width:0.264583;stroke-linecap:butt;stroke-linejoin:round;stroke-dasharray:none;stroke-opacity:1;paint-order:stroke markers fill"
         d="M 4.2173019,2.1261913 4.5894616,1.1866405 4.1029085,1.1286812 3.968687,2.0926359 Z"
         id="path6" />
      <path
         style="fill:#000000;fill-opacity:1;stroke:none;stroke-width:0.264583;stroke-linecap:butt;stroke-linejoin:round;stroke-dasharray:none;stroke-opacity:1;paint-order:stroke markers fill"
         d="M 3.4180737,1.9248589 3.6849915,1.1347821 4.2615339,1.1424082 4.174595,1.7509809 Z"
         id="path7" />
    </g>
    <g
       id="g22"
       style="display:none"
       transform="matrix(1,0,0,-1,0,5.6787918)">
      <path
         style="fill:#000000;fill-opacity:1;stroke:none;stroke-width:0.264583;stroke-linecap:butt;stroke-linejoin:round;stroke-dasharray:none;stroke-opacity:1;paint-order:stroke markers fill"
         d="m 2.7164839,4.6832887 c 0,-0.570344 0,-1.140688 0,-1.7110321 0,-0.3233909 0,-0.6467818 0,-0.9701728 0,-0.1006946 0.01764,-0.1996684 0.01764,-0.2998715 0,-0.082318 0,-0.1646354 0,-0.2469531 0,-0.031383 -0.00522,-0.074493 0,-0.105837 0.00108,-0.00648 0.00753,-0.011193 0.00882,-0.01764 0.00671,-0.033545 -0.00829,-0.072669 0,-0.1058371 0.011449,-0.045797 0.00882,0.00942 0.00882,-0.035279 0,-0.058336 0.00532,-0.141116 0.070558,-0.141116 0.00538,0 0.031843,-0.00344 0.035279,0 0.00408,0.00408 -0.00266,0.021134 0,0.026459 0.00927,0.018535 0.00455,0.02674 0.00882,0.035279 0.00185,0.00372 0.0075,0.00488 0.00882,0.00882 0.00353,0.010584 -0.00353,0.024695 0,0.035279 0.036518,0.1095545 0.01764,0.3699752 0.01764,0.4939062 0,0.088197 0,0.176395 0,0.2645925 0,0.1705153 0,0.3410305 0,0.5115457 0,0.072589 0.00603,0.1481607 0,0.2204941 -0.013663,0.1639615 -0.00882,0.3288577 -0.00882,0.4939056 0,0.083896 -0.00834,0.1723988 0,0.2557732 0.00298,0.029833 0.01392,0.058447 0.01764,0.088197 0.00576,0.046061 0.00292,0.088152 0.01764,0.1322962 0.011425,0.034273 -0.00877,0.079565 0,0.1146569 0.00101,0.00403 0.00781,0.00479 0.00882,0.00882 0.015595,0.062383 -0.012808,0.1476279 0,0.211674 0.018524,0.092619 0.00882,0.1957845 0.00882,0.291052 0,0.076823 0.014491,0.1858357 -0.00882,0.2557727 -0.0034,0.010205 0.00474,0.025802 0,0.035279 -0.00185,0.00372 -0.0075,0.00488 -0.00882,0.00882 -0.00282,0.00847 0.00423,0.026814 0,0.035279 -0.00185,0.00372 -0.0075,0.00488 -0.00882,0.00882 -0.00279,0.00837 0.00394,0.018571 0,0.026459 -0.0022,0.0044 -0.041803,0.06059 -0.044099,0.061738 -0.00262,0.00132 -0.00674,-0.00209 -0.00882,0 -0.00209,0.00209 0.00209,0.00674 0,0.00882 -0.00352,0.00352 -0.056593,0.00257 -0.061738,0 -0.00372,-0.00185 -0.0051,-0.00696 -0.00882,-0.00882 -0.021201,-0.010599 -0.047094,0.00547 -0.070558,0.00882 z"
         id="path8" />
      <path
         style="fill:#000000;fill-opacity:0;stroke:#000000;stroke-width:0.264583;stroke-linecap:butt;stroke-linejoin:round;stroke-dasharray:none;stroke-opacity:1;paint-order:stroke markers fill"
         d="m 4.2100957,1.1826111 c -0.063073,0 -0.1261454,0 -0.1892178,0 -0.1013666,0 -0.2027333,0 -0.3041002,0 -0.034333,0 -0.1104373,0.00787 -0.1419132,0 -0.00489,-0.00122 -0.00874,-0.00516 -0.013515,-0.00676 -0.014126,-0.00471 -0.1655371,-0.00423 -0.1824601,0 -0.029661,0.00742 -0.078463,0.017577 -0.1081244,0.020273 -0.037352,0.0034 -0.077552,0 -0.1148823,0 -0.074336,0 -0.148671,0 -0.2230067,0 -0.2297645,0 -0.4595289,0 -0.6892933,0 -0.067578,0 -0.1351556,0 -0.2027334,0 -0.063138,0 -0.1306578,-0.006 -0.1892177,0.013516 -0.00983,0.00328 -0.024644,-0.00457 -0.033789,0 -0.018193,0.0091 -0.031749,0.00236 -0.040547,0.00676 -0.00976,0.00488 -0.017274,0.00864 -0.027031,0.013516 -0.00604,0.00302 -0.013862,-0.00214 -0.020273,0 -0.00302,0.00101 -0.00391,0.00533 -0.00676,0.00676 -0.00403,0.00201 -0.00924,-0.00142 -0.013516,0 -0.020021,0.00667 -0.036652,0.011568 -0.054062,0.020273 -0.019823,0.00991 -0.054513,-0.00991 -0.074335,0 -0.00285,0.00142 -0.00391,0.00533 -0.00676,0.00676 -0.00901,0.00451 -0.024778,-0.00451 -0.033789,0 -0.020749,0.010374 -0.054944,0.014103 -0.074335,0.027031 -0.0053,0.00353 -0.00782,0.010666 -0.013515,0.013516 -0.00403,0.00201 -0.00914,-0.00109 -0.013516,0 -0.015455,0.00386 -0.034128,0.020443 -0.047304,0.027031 -0.023383,0.011692 -0.079827,0.079194 -0.094609,0.1013667 -0.011518,0.017278 -0.018241,0.036482 -0.027031,0.054062 -0.00858,0.017156 -0.029018,0.034979 -0.033789,0.054062 -0.00109,0.00437 0.00142,0.00924 0,0.013516 -0.00504,0.015117 -0.020949,0.0321 -0.027031,0.047304 -0.00363,0.00907 -0.00349,0.023998 -0.00676,0.033789 -0.00319,0.00956 -0.011072,0.017258 -0.013516,0.027031 -0.00764,0.03054 -0.011242,0.062998 -0.020273,0.094609 -0.00921,0.032235 -0.022135,0.067095 -0.027031,0.1013667 -0.00441,0.030883 -0.010045,0.063375 -0.013516,0.094609 -0.00222,0.019952 0.00284,0.040956 0,0.06082 -0.0077,0.0539 -0.00676,0.1072415 -0.00676,0.1621866 0,0.022767 -0.0038,0.051513 0,0.074336 0.00117,0.00703 0.00559,0.013247 0.00676,0.020273 0.00246,0.014784 -0.00365,0.032713 0,0.047305 0.011966,0.047864 0.020697,0.098 0.027031,0.1486711 0.00531,0.042474 0.00652,0.086403 0.013516,0.1283978 0.00339,0.020356 0.010601,0.040418 0.013515,0.06082 0.00346,0.024201 -0.00402,0.050227 0,0.074335 8.282e-4,0.00497 0.00577,0.00858 0.00676,0.013515 0.00265,0.013253 -0.00222,0.027215 0,0.040547 0.0045,0.026987 0.00965,0.054048 0.013515,0.081093 0.00255,0.017841 -0.00224,0.036181 0,0.054062 0.00676,0.054085 0.013462,0.1076929 0.020273,0.1621867 0.00788,0.063071 0,0.1322173 0,0.1959756 0,0.078841 0,0.1576813 0,0.2365221 0,0.052155 0.00344,0.1044543 -0.00676,0.155429 -0.0052,0.025995 0.0017,0.048958 -0.00676,0.074335 -0.00541,0.016219 0.00541,0.037844 0,0.054062 -0.00459,0.013785 -0.00676,0.019106 -0.00676,0.033789 0,0.00599 0.0021,0.022836 0,0.027031 -0.00101,0.00201 -0.00575,-0.00201 -0.00676,0 -0.0063,0.01261 0.0045,0.033797 0,0.047304 -0.00159,0.00478 -0.00554,0.00863 -0.00676,0.013515 -0.00254,0.010173 0.00333,0.023802 0,0.033789 -0.00717,0.021511 -7.435e-4,0.042777 -0.00676,0.06082 -0.011225,0.033676 -0.00676,0.071989 -0.00676,0.1081244 0,0.035887 -0.00831,0.095167 0,0.1283978 0.0036,0.014393 0.00749,0.028499 0.013515,0.040547 0.00534,0.010689 0.0035,0.041045 0.00676,0.054062 0.00281,0.011221 0.010457,0.017857 0.013516,0.027031 0.00142,0.00427 -0.00142,0.00924 0,0.013515 0.00233,0.007 0.010163,0.013571 0.013515,0.020272 0.00205,0.0041 0.00393,0.017441 0.00676,0.020272 0.00159,0.00159 0.00516,-0.00159 0.00676,0 0.00225,0.00225 0.00451,0.018021 0.00676,0.020272 0.00159,0.00159 0.00516,-0.00159 0.00676,0 2.378e-4,2.379e-4 0.00435,0.017867 0.00676,0.020272 0.00283,0.00283 0.016178,0.00471 0.020273,0.00676 0.016219,0.00811 0.024328,0.032437 0.040547,0.040547 0.00201,0.00101 0.00516,-0.00159 0.00676,0 0.00415,0.00415 0.00446,0.015748 0.013515,0.020272 0.00697,0.00348 0.015504,0.00398 0.020274,0.013515 0.00101,0.00201 -0.00159,0.00516 0,0.00676 0.00159,0.00159 0.00474,-0.00101 0.00676,0 0.00811,0.00406 0.012164,0.016219 0.020273,0.020272 0.00825,0.00412 0.028348,0.00808 0.033789,0.013515 0.00159,0.00159 -0.00159,0.00516 0,0.00676 0.00159,0.00159 0.00474,-0.00101 0.00676,0 0.00787,0.00394 0.012401,0.00958 0.020274,0.013515 0.00604,0.00302 0.013717,-0.00164 0.020273,0 0.030097,0.00752 0.056108,0.00676 0.087851,0.00676 0.05107,0 0.099065,0.00138 0.1486711,-0.013515 0.066021,-0.019807 0.1197389,-0.067729 0.18246,-0.094609 0.00349,-0.00151 0.11464,-0.010258 0.12164,-0.00676 0.041563,0.02078 0.084775,0.03215 0.1351556,0.040547 0.01375,-0.00235 0.021894,0.011136 0.033789,0.013515 0.013253,0.00265 0.027167,-0.0019 0.040547,0 0.017111,-6.35e-4 0.031129,0.010819 0.047305,0.013515 0.035782,0.00596 0.072343,0.00755 0.1081244,0.013515 0.031738,0.00529 0.062934,0.015748 0.094609,0.020272 0.063692,0.0091 0.1317418,-0.00428 0.1959756,0 0.087804,0.00585 0.1762485,0.010573 0.2635533,0.020272 0.050323,0.00559 0.1058598,-0.00991 0.155429,0 0.00698,0.0014 0.013515,0.00451 0.020272,0.00676 0.011263,0 0.02268,-0.00185 0.033789,0 0.00314,5.292e-4 0.00374,0.00575 0.00676,0.00676 0.021312,0.0071 0.095517,0 0.1216401,0 0.025559,0 0.056312,-0.00496 0.081093,0 0.00494,9.79e-4 0.00858,0.00577 0.013515,0.00676 0.013253,0.00265 0.027167,-0.0019 0.040547,0 0.067316,0.00962 0.134955,6.085e-4 0.2027333,0.00676 0.061262,0.00557 0.1206987,0.00676 0.1824601,0.00676 0.054481,0 0.14487,0.00852 0.1959756,0 0.011964,-0.00198 0.021823,-0.011523 0.033789,-0.013515 0.00666,-0.00111 0.013515,0 0.020272,0 0.00676,-0.00225 0.013287,-0.00536 0.020272,-0.00676 0.010663,-0.00214 0.053409,-0.00305 0.06082,-0.00676 0.00811,-0.00406 0.012163,-0.016219 0.020272,-0.020272 0.00877,-0.00438 0.017902,-0.00895 0.027031,-0.013515 0.00403,-0.00201 0.00949,0.00201 0.013515,0 0.0067,-0.00335 0.013274,-0.011181 0.020272,-0.013515 0.010268,-0.00342 0.054686,-0.00369 0.06082,-0.00676 0.00285,-0.00143 0.00391,-0.00533 0.00676,-0.00676 0.00408,-0.00204 0.01715,0.00312 0.020272,0 0.00159,-0.00159 -0.00159,-0.00516 0,-0.00676 0.00478,-0.00478 0.013861,0.00214 0.020272,0 0.012814,-0.00427 0.02828,-0.014139 0.040547,-0.020272 0.00721,-0.0036 0.019823,0.0036 0.027031,0 0.00285,-0.00143 0.00391,-0.00533 0.00676,-0.00676 0.00625,-0.00312 0.030006,0.00378 0.040547,-0.00676 0.00159,-0.00159 -0.00159,-0.00516 0,-0.00676 0.00159,-0.00159 0.00474,0.00101 0.00676,0 0.025109,-0.012555 0.034835,-0.046796 0.047305,-0.067578 0.00328,-0.00546 0.010353,-0.00798 0.013515,-0.013515 0.034936,-0.00841 0.00618,-0.032637 0.013515,-0.047305 0.00285,-0.0057 0.010665,-0.00782 0.013515,-0.013515 0.00201,-0.00403 -0.00108,-0.00914 0,-0.013515 0.00409,-0.01637 0.016029,-0.030322 0.020272,-0.047304 5.556e-4,-0.0022 0,-0.00451 0,-0.00676 0,-0.00451 -0.00108,-0.00914 0,-0.013515 0.00817,-0.032668 0.01982,-0.06667 0.033789,-0.094609 0.010295,-0.02059 -0.00703,-0.1002903 0,-0.1283977 0.036512,-0.1460479 0.020272,-0.3262604 0.020272,-0.4798021 0,-0.05181 0,-0.1036193 0,-0.1554289 0,-0.021209 -0.00343,-0.046973 0,-0.067578 8.202e-4,-0.00497 0.00577,-0.00858 0.00676,-0.013515 0.00329,-0.016444 0,-0.037157 0,-0.054062 0,-0.053195 -0.0044,-0.1094121 0,-0.1621867 5.821e-4,-0.0071 0.00575,-0.013221 0.00676,-0.020272 0.00127,-0.00892 -0.00167,-0.018174 0,-0.027031 0.00896,-0.047794 0.023601,-0.094366 0.033789,-0.1419133 0.010435,-0.048693 0.014145,-0.099646 0.020272,-0.1486712 0.00495,-0.039567 0,-0.081889 0,-0.1216398 0,-0.083346 0,-0.166692 0,-0.2500379 0,-0.00778 0.00222,-0.2072768 0,-0.2094911 -0.00338,-0.00338 -0.016894,0.00338 -0.020272,0 -0.0018,-0.00179 0,-0.017491 0,-0.020274 0,-0.048221 -0.00676,-0.1013388 0,-0.1486711 0.0023,-0.016056 0.00708,-0.03444 0.013515,-0.047304 0.00846,-0.016924 -0.00477,-0.091016 0,-0.1148822 6.35e-4,-0.00312 0.00631,-0.0036 0.00676,-0.00676 0.00406,-0.028429 0.00124,-0.053491 0.00676,-0.081093 6.35e-4,-0.00312 0.00631,-0.0036 0.00676,-0.00676 0.00543,-0.038012 0,-0.08288 0,-0.12164 0,-0.05034 0.00111,-0.099711 -0.027031,-0.1419134 -0.017997,-0.026996 -0.047626,-0.027673 -0.06082,-0.054062 -0.00418,-0.00836 -0.025638,-0.06572 -0.027031,-0.067578 -0.00302,-0.00403 -0.010493,-0.00273 -0.013515,-0.00676 -0.007,-0.00933 -0.00746,-0.031456 -0.013515,-0.040547 -0.00949,-0.014238 -0.03312,-0.039209 -0.040547,-0.054062 -0.00204,-0.0041 -0.00393,-0.017442 -0.00676,-0.020273 -0.00159,-0.00159 -0.00516,0.00159 -0.00676,0 -3.968e-4,-3.916e-4 -0.013256,-0.019753 -0.013515,-0.020273 -0.00725,-0.014502 -0.00738,-3.122e-4 -0.020272,-0.00676 -0.00201,-0.00101 0.00159,-0.00516 0,-0.00676 -0.00319,-0.00319 -0.00901,0 -0.013515,0 -0.015134,0 -0.076028,0.00591 -0.087851,0 -0.011374,-0.00569 -0.013134,-0.00676 -0.027031,-0.00676 -0.013996,0 -0.042254,0.0059 -0.054062,0 -0.00285,-0.00142 -0.00391,-0.00533 -0.00676,-0.00676 -0.00709,-0.00354 -0.028395,0.00539 -0.033789,0 -0.00928,-0.00928 0.011925,-0.00676 0.013515,-0.00676"
         id="path11" />
      <path
         style="fill:#000000;fill-opacity:0;stroke:#000000;stroke-width:0.264583;stroke-linecap:butt;stroke-linejoin:round;stroke-dasharray:none;stroke-opacity:1;paint-order:stroke markers fill"
         d="m 4.4537198,1.2822348 c -0.00909,0 -0.027281,-0.00909 -0.027281,0 0,0.00909 0.036375,0 0.027281,0 -0.065422,0 -0.1243616,0.00261 -0.1841508,-0.027282 -0.02172,-0.010859 -0.065042,-0.029721 -0.081845,-0.040922 -0.00535,-0.00357 -0.00789,-0.010765 -0.013642,-0.013641 -0.00979,-0.0049 -0.089963,-0.00506 -0.1023059,-0.00682 -0.014962,-0.00214 -0.032272,-0.010547 -0.047743,-0.013641 -0.00923,-0.00185 -0.047239,-0.00316 -0.054563,-0.00682 -0.00692,-0.00346 0.00818,-0.00682 -0.013642,-0.00682"
         id="path12" />
      <path
         style="fill:#000000;fill-opacity:0;stroke:#000000;stroke-width:0.264583;stroke-linecap:butt;stroke-linejoin:round;stroke-dasharray:none;stroke-opacity:1;paint-order:stroke markers fill"
         d="m 4.1399817,0.99577809 c -0.2796366,0 -0.5592728,0 -0.8389091,0 -0.077897,0 -0.1613091,0.008601 -0.238714,0 -0.03199,-0.003554 -0.063468,-0.0104391 -0.095485,-0.0136408 -0.060768,-0.006077 -0.1232472,0.004685 -0.1841508,0 -0.063735,-0.004903 -0.1267201,-0.0105812 -0.1909712,-0.0136409 -0.029522,-0.001405 -0.059212,0.002455 -0.088665,0 -0.074953,-0.006246 -0.1505785,-0.0130117 -0.2250731,-0.0204613 -0.073393,-0.007339 -0.151286,0 -0.2250731,0 -0.034969,0 -0.1736475,-0.007741 -0.204612,0 -0.01619,0.004048 -0.031553,0.009593 -0.047743,0.0136409 -0.013233,0.003308 -0.027467,-0.002244 -0.040922,0 -0.010029,0.001672 -0.017418,0.0111749 -0.027282,0.0136409 -0.075294,0.0188235 -0.1370792,0.0673769 -0.1977916,0.11594681 -0.010295,0.00824 -0.051667,0.031206 -0.054563,0.034102 -0.0058,0.0058 -0.00784,0.014665 -0.013641,0.020461 -0.01,0.01 -0.029565,0.011943 -0.040922,0.020461 -0.012782,0.00959 -0.057548,0.050727 -0.068204,0.061384 -0.00359,0.00359 -0.00357,0.00974 -0.00682,0.013641 -0.00823,0.00988 -0.019386,0.01713 -0.027282,0.027281 -0.02688,0.03456 -0.047468,0.074681 -0.075024,0.1091263 -0.0065,0.00812 -0.030042,0.027606 -0.034102,0.034102 -0.01794,0.028705 -0.030169,0.066196 -0.047743,0.095486 -0.023452,0.039087 -0.020678,0.062035 -0.034102,0.102306 -0.00102,0.00305 -0.00563,0.00384 -0.00682,0.00682 -0.00694,0.017339 -0.017758,0.049278 -0.020461,0.068204 -0.0096,0.06721 -0.00682,0.1362376 -0.00682,0.204612 0,0.1045794 0,0.2091588 0,0.3137383 0,0.062488 -0.00622,0.1287525 0,0.1909711 0.00732,0.073232 0.01317,0.1453389 0.020461,0.2182527 5.636e-4,0.00563 -0.00281,0.1063149 0,0.1091264 0.00161,0.00161 0.00521,-0.00161 0.00682,0 0.00337,0.00337 0,0.046348 0,0.047743 0,0.090939 0,0.1818772 0,0.2728161 0,0.044074 -0.00195,0.085788 -0.00682,0.1295874 -0.00365,0.032852 0.00797,0.070438 0,0.1023061 -0.00511,0.020452 -0.00836,0.040242 -0.013641,0.061383 -0.00221,0.00882 0.00178,0.018365 0,0.027282 -9.975e-4,0.00498 -0.00582,0.00865 -0.00682,0.013642 -0.00306,0.015303 0.00306,0.032441 0,0.047743 -9.975e-4,0.00498 -0.00559,0.00871 -0.00682,0.013642 -0.00397,0.015888 0,0.038285 0,0.054563 0,0.030946 -0.00756,0.072062 0,0.1023059 7.805e-4,0.00312 0.00604,0.0037 0.00682,0.00682 0.00221,0.00882 -0.00407,0.019148 0,0.027281 0.00588,0.011769 0.00777,0.022365 0.013641,0.034102 0.00305,0.0061 -0.00216,0.013991 0,0.02046 0.00102,0.00305 0.00538,0.00394 0.00682,0.00682 0.00498,0.00997 0.012149,0.05627 0.013641,0.068204 0.00337,0.026993 0.00148,0.055138 0.00682,0.081845 9.975e-4,0.00498 0.00598,0.00863 0.00682,0.013642 0.00757,0.045398 -0.011146,0.098644 0,0.1432285 0.00846,0.03385 0.012139,0.072021 0.027282,0.1023059 0.00596,0.01192 0.0021,0.060866 0.00682,0.075025 0.00102,0.00305 0.00604,0.0037 0.00682,0.00682 0.00681,0.027233 0.00104,0.1589453 0.00682,0.1705099 0.00772,0.015449 0.00592,0.032293 0.013641,0.047743 0.00102,0.00204 0,0.00455 0,0.00682 0,0.00455 -0.00203,0.00957 0,0.013642 0.00102,0.00204 0.0058,-0.00204 0.00682,0 0.00682,0.013642 -0.00341,0.010231 0,0.02046 0.00335,0.010062 0.010781,0.018701 0.013641,0.027282 0.00216,0.00647 -0.00305,0.014362 0,0.02046 0.00535,0.010708 0.014787,0.015933 0.020461,0.027281 0.00203,0.00407 -0.00144,0.00933 0,0.013642 0.00203,0.0061 0.010765,0.00789 0.013641,0.013642 0.00322,0.00643 0.00361,0.014031 0.00682,0.02046 0.00403,0.00806 0.015445,0.012938 0.020461,0.02046 0.015026,0.00343 0.00361,0.014031 0.00682,0.02046 0.00245,0.00491 0.037915,0.053059 0.040922,0.054563 0.075424,0.037712 0.1638475,0.063961 0.2523548,0.075024 0.020303,0.00254 0.040922,0 0.061384,0 0.072751,0 0.1455018,0 0.2182527,0 0.033611,0 0.068985,-0.00333 0.102306,0 0.045444,0.00455 0.090665,0.010782 0.1364079,0.013642 0.096865,0.00605 0.1962608,0 0.2932771,0 0.061384,0 0.1228567,0.00331 0.1841508,0 0.1369449,-0.0074 0.2724356,-0.024982 0.4092236,-0.034102 0.047305,-0.00315 0.095758,0 0.1432285,0 0.1068528,0 0.2137058,0 0.3205586,0 0.042805,0 0.094074,3.175e-4 0.1364081,0.00682 0.018529,0.00285 0.03598,0.011163 0.054563,0.013642 0.015775,0.00212 0.031864,-0.00106 0.047743,0 0.047996,0.0032 0.095499,0.0093 0.1432284,0.013642 0.098032,0.00891 0.2014866,0 0.3000976,0 0.1179941,0 0.237686,0.00618 0.3546605,-0.00682 0.025961,-0.00288 0.050146,-0.00742 0.075024,-0.013642 0.00936,-0.00233 0.085173,0.00349 0.088665,0 0.00161,-0.00161 -0.00161,-0.00521 0,-0.00682 0.00419,-0.00419 0.015893,-0.00451 0.02046,-0.013642 0.00101,-0.00204 -0.00161,-0.00521 0,-0.00682 0.00161,-0.00161 0.0058,0.00204 0.00682,0 0.00455,-0.013642 0.00909,-0.027282 0.013642,-0.040922 0,-0.00455 -0.00143,-0.00933 0,-0.013642 0.010803,-0.032409 0.025879,-0.062589 0.034102,-0.095486 0.0022,-0.00882 -0.00148,-0.018312 0,-0.027281 0.00272,-0.016325 0.010919,-0.031417 0.013642,-0.047743 0.01969,-0.1181407 0.056111,-0.2536155 0.040922,-0.375122 -0.00481,-0.038454 -0.022426,-0.077097 -0.027281,-0.1159468 -0.00574,-0.045913 -0.013997,-0.091155 -0.02046,-0.1364077 -0.00572,-0.040057 0.00403,-0.082488 0,-0.1227672 -0.011909,-0.1190911 -0.00682,-0.2412741 -0.00682,-0.3614812 0,-0.1386813 0,-0.277363 0,-0.4160443 0,-0.067824 0.00451,-0.1370415 0,-0.2046118 -0.00408,-0.061223 -0.00948,-0.123753 -0.02046,-0.1841508 -0.00654,-0.035938 -0.01683,-0.072819 -0.02046,-0.1091264 -0.00533,-0.053323 0,-0.1100252 0,-0.1636895 0,-0.048818 0.00146,-0.094896 0.00682,-0.1432284 0.00344,-0.030929 0,-0.064406 0,-0.095486 0,-0.068204 0,-0.1364079 0,-0.2046119 0,-0.045024 0.0032,-0.09153 0,-0.136408 -0.00228,-0.015914 -0.00455,-0.031829 -0.00682,-0.047743 -0.00228,-0.00455 -0.00582,-0.00866 -0.00682,-0.013641 -0.00618,-0.030917 -0.0085,-0.06462 -0.013642,-0.095486 -0.007,-0.042028 0.00701,-0.087559 0,-0.1295875 -0.00306,-0.018386 -0.00911,-0.036433 -0.013642,-0.054563 -0.00341,-0.013641 0.00682,0 0,-0.020461 -0.00101,-0.00305 -0.0058,-0.00377 -0.00682,-0.00682 -0.00341,-0.010231 0.00341,-0.023872 0,-0.034102 -0.00292,-0.00875 -0.010724,-0.018532 -0.013642,-0.027282 -0.00143,-0.00431 0.00143,-0.00933 0,-0.013641 C 4.6294314,1.2364598 4.5293568,1.1123332 4.5082835,1.09126 4.4967795,1.079756 4.4683255,1.06446 4.4537205,1.057158 4.4167255,1.038661 4.2411365,1.050338 4.1877251,1.050338"
         id="path13" />
      <path
         style="fill:#000000;fill-opacity:0;stroke:#000000;stroke-width:0.264583;stroke-linecap:butt;stroke-linejoin:round;stroke-dasharray:none;stroke-opacity:1;paint-order:stroke markers fill"
         d="m 4.3923362,1.0162393 c -0.078564,-0.00803 -0.1603695,0.00979 -0.2387139,0 C 4.1035041,1.0099745 4.0509187,0.99109857 4.0035736,0.97531691 3.9166292,0.94633543 3.8285917,0.92757412 3.7375779,0.92757412"
         id="path14" />
      <path
         style="fill:#000000;fill-opacity:0;stroke:#000000;stroke-width:0.264583;stroke-linecap:butt;stroke-linejoin:round;stroke-dasharray:none;stroke-opacity:1;paint-order:stroke markers fill"
         d="m 1.5915749,1.8364326 c 0.220372,0 0.4407439,0 0.6611158,0"
         id="path15" />
      <path
         style="fill:#000000;fill-opacity:0;stroke:#000000;stroke-width:0.264583;stroke-linecap:butt;stroke-linejoin:round;stroke-dasharray:none;stroke-opacity:1;paint-order:stroke markers fill"
         d="m 1.4446603,2.5301961 c 0.3128737,0 0.6257474,0 0.9386211,0"
         id="path16" />
      <path
         style="fill:#000000;fill-opacity:0;stroke:#000000;stroke-width:0.264583;stroke-linecap:butt;stroke-linejoin:round;stroke-dasharray:none;stroke-opacity:1;paint-order:stroke markers fill"
         d="m 1.48547,3.289255 c 0.3264769,0 0.6529538,0 0.9794307,0"
         id="path17" />
      <path
         style="fill:#000000;fill-opacity:0;stroke:#000000;stroke-width:0.264583;stroke-linecap:butt;stroke-linejoin:round;stroke-dasharray:none;stroke-opacity:1;paint-order:stroke markers fill"
         d="m 1.5752511,4.0319899 c 0.3155944,0 0.6311887,0 0.9467831,0"
         id="path18" />
      <path
         style="fill:#000000;fill-opacity:0;stroke:#000000;stroke-width:0.264583;stroke-linecap:butt;stroke-linejoin:round;stroke-dasharray:none;stroke-opacity:1;paint-order:stroke markers fill"
         d="m 3.2239595,4.023828 c 0.2693435,0 0.5386869,0 0.8080304,0"
         id="path19" />
      <path
         style="fill:#000000;fill-opacity:0;stroke:#000000;stroke-width:0.264583;stroke-linecap:butt;stroke-linejoin:round;stroke-dasharray:none;stroke-opacity:1;paint-order:stroke markers fill"
         d="m 3.0443971,3.289255 c 0.394493,0 0.7889859,0 1.1834789,0"
         id="path20" />
      <path
         style="fill:#000000;fill-opacity:0;stroke:#000000;stroke-width:0.264583;stroke-linecap:butt;stroke-linejoin:round;stroke-dasharray:none;stroke-opacity:1;paint-order:stroke markers fill"
         d="m 3.2239595,2.5138722 c 0.3291975,0 0.658395,0 0.9875928,0"
         id="path21" />
      <path
         style="fill:#000000;fill-opacity:0;stroke:#000000;stroke-width:0.264583;stroke-linecap:butt;stroke-linejoin:round;stroke-dasharray:none;stroke-opacity:1;paint-order:stroke markers fill"
         d="m 3.0933689,1.8282707 c 0.2285335,0 0.4570674,0 0.6856012,0 0.028314,0 0.1537312,0.00951 0.1714006,-0.00816"
         id="path22" />
    </g>
    <text
       xml:space="preserve"
       style="font-style:normal;font-variant:normal;font-weight:bold;font-stretch:normal;font-size:4.23333px;font-family:'Times New Roman';-inkscape-font-specification:'Times New Roman,  Bold';text-align:start;writing-mode:lr-tb;direction:ltr;text-anchor:start;display:none;fill:#000000;fill-opacity:1;stroke:#000000;stroke-width:0;stroke-linecap:butt;stroke-linejoin:round;stroke-dasharray:none;stroke-opacity:1;paint-order:stroke markers fill"
       x="1.8510507"
       y="3.8478272"
       id="text22"><tspan
         sodipodi:role="line"
         id="tspan22"
         style="font-size:4.23333px;fill:#000000;fill-opacity:1;stroke-width:0;stroke-dasharray:none"
         x="0"
         y="0">v</tspan></text>
    <path
       style="display:none;fill:#000000;stroke-width:0.337726"
       d="m 3.1700868,2.0638458 c -0.3165645,0 -0.6331287,0 -0.9496931,0 -0.038357,0 -0.1716972,-0.022118 -0.1938148,0 -0.050586,0.050586 -0.038763,0.3932964 -0.038763,0.4651558 0,0.038763 -0.0076,0.078278 0,0.1162894 0.00283,0.014165 0.016547,0.024598 0.019381,0.038763 0.00633,0.031675 -0.00784,0.06557 0,0.096906 0.025451,0.1018033 0.1057556,0.1738721 0.1938148,0.2325778 0.022951,0.0153 0.052374,0.049761 0.077526,0.058144 0.012254,0.00408 0.028012,-0.00716 0.038763,0 0.029325,0.019552 0.020909,0.045732 0.058144,0.058144 0.012254,0.00408 0.026506,-0.00408 0.038763,0 0.030333,0.010111 0.06122,0.029842 0.096909,0.038763 0.018803,0.0047 0.040809,-0.00867 0.058144,0 0.053704,0.026853 0.2820345,0.074852 0.3488669,0.058145 0.058518,-0.014631 0.1469573,-0.040039 0.193815,-0.077526 0.011284,-0.00903 0.00917,-0.028547 0.019381,-0.038763 0.029834,-0.029835 0.086454,-0.047691 0.1162894,-0.077526 0.010209,-0.010209 0.00917,-0.028548 0.019381,-0.038763 0.045622,-0.045622 0.1165128,-0.077862 0.155052,-0.1356707 0.06981,-0.1047141 0.1392387,-0.283586 0.077526,-0.407011 -0.00588,-0.011744 -0.011258,-0.050022 -0.019383,-0.058145 -0.00457,-0.00457 -0.014813,0.00457 -0.019381,0 -0.00457,-0.00457 0.00291,-0.013603 0,-0.019381 -0.04033,-0.080661 0.00136,0.020719 -0.038763,-0.019381 -0.00457,-0.00457 0.00457,-0.014813 0,-0.019381 -0.00457,-0.00457 -0.013603,0.00289 -0.019381,0 C 3.3642651,2.3159853 3.3416476,2.262205 3.305756,2.2382787 3.2805221,2.2214576 3.2634816,2.2249102 3.2476107,2.1995167 3.2200048,2.1553481 3.1959265,2.1090693 3.1700844,2.0638462 Z"
       id="path1" />
    <path
       style="display:none;fill:#000000;fill-opacity:0;stroke:#000000;stroke-width:0.337726;stroke-opacity:1"
       d="m 3.2669941,1.8506495 c 0,-0.3294853 0,-0.6589708 0,-0.98845603 0,-0.15022446 -0.018639,-0.31604915 0,-0.46515571 0.023877,-0.19102469 0.1844063,-0.43128507 0.3876298,-0.46515569 0.038236,-0.006372 0.078053,0.006372 0.1162895,0 0.065916,-0.01098638 0.2265893,-0.04343151 0.2907226,-0.01938145 0.063681,0.0238799 0.26557,0.21265279 0.2907221,0.27134081 0.012975,0.0302786 0.011387,0.0649489 0.019383,0.0969075 0.023573,0.0942924 0.019381,0.17075905 0.019381,0.2713408 0,0.0710649 0.013938,0.14351099 0,0.21319635 C 4.3642192,0.89980612 4.2721268,1.0406875 4.1973076,1.1529158 4.1387105,1.2408109 4.0497075,1.3034983 3.9841111,1.3854938 3.9554039,1.4213788 3.940365,1.468003 3.9065847,1.5017833 3.8963756,1.5119924 3.8780372,1.5109497 3.8678216,1.5211654 3.8160038,1.572981 3.7625123,1.67364 3.732151,1.7343618 c -0.00646,0.012921 -0.014813,0.025058 -0.019381,0.038763 -0.021737,0.06521 0,0.1626055 0,0.2325778 0,0.00798 -0.00513,0.053015 0,0.058144 0.00913,0.00914 0.027207,-0.00578 0.038763,0 0.06176,0.030879 0.1743365,0.064637 0.2519593,0.038763 0.017335,-0.00578 0.023559,-0.028627 0.038763,-0.038763 0.072677,-0.048451 0.1502379,-0.092093 0.2131963,-0.155052 0.016471,-0.016471 0.022293,-0.041674 0.038763,-0.058145 0.02284,-0.022842 0.053001,-0.037122 0.077526,-0.058144 0.069156,-0.059277 0.1252664,-0.133835 0.1938146,-0.1938148 0.2792939,-0.2443823 -0.08141,0.083993 0.1356703,-0.096908 0.1726431,-0.1438693 0.3575023,-0.2584248 0.5814447,-0.3101039 0.067631,-0.015607 0.2865325,-0.027761 0.3294852,0.058144 0.058475,0.116952 0.058144,0.2528889 0.058144,0.3876299 0,0.070725 0.017184,0.1638495 0,0.2325778 -0.01696,0.067843 -0.061659,0.1215599 -0.096907,0.1744335 -0.053125,0.079689 -0.1065897,0.1802428 -0.1938148,0.2325777 -0.017518,0.010502 -0.040626,0.00887 -0.058144,0.019381 -0.015671,0.00941 -0.023093,0.029362 -0.038763,0.038763 -0.052324,0.031394 -0.1221101,0.046132 -0.1744334,0.077526 -0.015671,0.00941 -0.022064,0.031341 -0.038763,0.038763 -0.093261,0.041449 -0.2315036,0.064248 -0.3294852,0.096909 -0.069456,0.023151 -0.1433134,0.060056 -0.2131964,0.077526 -0.018801,0.0047 -0.040809,-0.00867 -0.058144,0 -0.033327,0.016663 -0.063579,0.022101 -0.096906,0.038763 -0.020336,0.010166 -0.081437,-0.015468 -0.096908,0 -0.00457,0.00457 0.00457,0.014813 0,0.019381 -0.00969,0.00969 -0.048454,-0.00969 -0.058144,0 -0.00457,0.00457 0.00457,0.014813 0,0.019381 -0.00913,0.00914 -0.029625,-0.00913 -0.038763,0 -0.00457,0.00457 0.00457,0.014813 0,0.019381 -0.00457,0.00457 -0.014813,-0.00457 -0.019381,0 -0.00457,0.00457 0.00457,0.014813 0,0.019382 -0.00777,0.00777 -0.02463,0.010492 -0.038763,0.038763 -0.00578,0.011552 0.00578,0.027207 0,0.038763 -0.071112,0.142223 0.068496,0.2641161 0.1744335,0.348867 0.075854,0.060682 0.136118,0.1360062 0.2131964,0.1938145 0.049399,0.037049 0.109606,0.051462 0.1550516,0.096908 0.010209,0.010209 0.00917,0.028548 0.019383,0.038763 0.00457,0.00457 0.014813,-0.00457 0.019381,0 0.00281,0.00281 0.096842,0.1355398 0.096907,0.1356705 0.00578,0.011551 -0.00314,0.026227 0,0.038763 0.00941,0.037627 0.044249,0.062169 0.058144,0.096907 0.0048,0.011999 -0.00408,0.026505 0,0.038763 0.00291,0.00867 0.015295,0.011207 0.019383,0.019381 0.00578,0.011551 -0.00408,0.026505 0,0.038763 0.023615,0.07084 0.019381,0.136676 0.019381,0.2131961 0,0.028019 0.00882,0.089841 0,0.1162894 -0.016127,0.048378 -0.14103,0.2061855 -0.1938148,0.2325778 -0.015164,0.00758 -0.1031132,0.00439 -0.1162895,0 -0.017336,-0.00578 -0.021429,-0.032986 -0.038763,-0.038763 -0.012254,-0.00408 -0.026506,0.00408 -0.038763,0 -0.00867,-0.00291 -0.011782,-0.014312 -0.019381,-0.019381 -0.012921,-0.00646 -0.025843,-0.012921 -0.038763,-0.019383 -0.00646,0 -0.013604,0.00291 -0.019383,0 C 4.3568849,4.3143631 4.3271658,4.2437151 4.2748331,4.1764298 4.2047689,4.0863474 4.1257836,4.001309 4.0616367,3.905089 4.0254985,3.8508822 4.0184421,3.7821529 3.9841105,3.7306556 3.9388905,3.6628255 3.8824102,3.6047807 3.8484402,3.5368405 3.8354616,3.5108822 3.8022038,3.509984 3.790296,3.4980774 c -0.00457,-0.00457 0.00457,-0.014813 0,-0.019381 -0.00913,-0.00913 -0.029625,0.00914 -0.038763,0 -0.00457,-0.00457 0.00457,-0.014813 0,-0.019381 -0.00811,-0.00811 -0.046397,-0.013509 -0.058145,-0.019383 -0.027984,-0.013992 -0.049542,-0.024772 -0.077526,-0.038763 -0.048012,-0.024005 -0.1773524,0 -0.2325779,0 -0.00646,0 -0.014813,-0.00457 -0.019381,0 -0.03407,0.03407 -0.019382,0.2011997 -0.019382,0.2519595 0,0.065483 -0.014081,0.1498398 0,0.2131963 0.022273,0.1002264 0.077394,0.1973748 0.1162882,0.2907223 0.053196,0.1276701 0.019716,0.1112794 0.096907,0.2325779 0.07873,0.1237184 0.076575,0.063807 0.1356703,0.1938149 0.016907,0.037197 0.019196,0.080417 0.038763,0.1162894 0.019808,0.036316 0.056243,0.061435 0.077526,0.096906 0.0179,0.029834 0.021868,0.066495 0.038763,0.096908 0.015687,0.028238 0.041525,0.049827 0.058144,0.077526 0.025131,0.041886 0.1603161,0.3453574 0.096907,0.3876299 -0.047736,0.031824 -0.089679,0.062414 -0.1356703,0.096907 -0.052296,0.039223 -0.031759,-3.246e-4 -0.096909,0.038763 -0.015671,0.00941 -0.022418,0.030592 -0.038763,0.038763 -0.019878,0.00995 -0.1408447,0.032047 -0.1744333,0.038763 -0.075425,0.015081 -0.1732247,0.039064 -0.25196,0.01938 C 3.1893588,5.5621786 3.061711,5.4577853 2.9956533,5.3586994 2.9720366,5.3232705 2.963033,5.276441 2.9375091,5.2424099 2.9265441,5.2277935 2.9055329,5.2206134 2.898746,5.2036467 c -0.0072,-0.017994 0.00613,-0.039758 0,-0.058144 C 2.827482,5.0386067 2.87808,5.1377927 2.859983,5.0292132 2.845627,4.9430822 2.794975,4.8648774 2.782457,4.7772539 c -0.015951,-0.111665 0,-0.2358762 0,-0.3488667 0,-0.1168523 -0.019219,-0.2529306 0,-0.3682484 0.0056,-0.033593 0.1326181,-0.506971 0.096907,-0.5426815 -0.00457,-0.00457 -0.013603,0.00291 -0.019381,0 -0.080662,-0.04033 0.020719,0.00136 -0.019381,-0.038763 -0.00913,-0.00913 -0.027207,0.00578 -0.038763,0 -0.00817,-0.00408 -0.011207,-0.015295 -0.019381,-0.019383 -0.033469,-0.016734 -0.2260724,0.00386 -0.2519594,0.019383 -0.047251,0.028349 -0.083645,0.070895 -0.1356705,0.096906 -0.065416,0.032709 -0.096414,0.057816 -0.1550518,0.096909 -0.040939,0.027292 -0.097251,0.02741 -0.1356705,0.058144 -0.01819,0.014552 -0.022292,0.041674 -0.038763,0.058144 -0.074161,0.074161 -0.1579187,0.1164605 -0.2131964,0.2131962 -0.062002,0.1085045 -0.061785,0.2511756 -0.096907,0.3682485 -0.038608,0.1286895 -0.073879,0.2604001 -0.1162893,0.3876296 -0.00633,0.019007 -0.024765,0.1123388 -0.038763,0.1356705 -0.00941,0.015671 -0.029362,0.023093 -0.038763,0.038763 -0.039088,0.065146 4.592e-4,0.044612 -0.038763,0.096907 C 1.4691433,5.1005676 1.3016434,5.194579 1.2125558,5.1648829 1.153318,5.1451359 1.1266667,5.1011628 1.0768854,5.0679766 1.0648615,5.0599614 1.0467902,5.0601569 1.0381223,5.0485934 1.017249,5.0207616 1.0172598,4.9815184 0.99936019,4.9516861 0.87392301,4.7426272 0.81138564,4.3572283 0.88306876,4.1182827 c 0.008298,-0.027673 0.0286181,-0.050473 0.0387632,-0.077526 0.0306599,-0.08176 0.0578759,-0.1545137 0.0969074,-0.232578 0.00914,-0.018274 0.00712,-0.041801 0.019381,-0.058144 0.00867,-0.011551 0.028547,-0.00917 0.038763,-0.019383 0.021967,-0.021966 0.026021,-0.061464 0.058145,-0.077526 0.080511,-0.040255 0.1640707,-0.06761 0.2519595,-0.096908 0.053425,-0.017809 0.1005196,-0.063893 0.155052,-0.077526 0.012534,-0.00314 0.026506,0.00408 0.038763,0 0.022959,-0.00766 0.036351,-0.047248 0.058145,-0.058144 0.00578,-0.00291 0.014813,0.00457 0.019381,0 0.00457,-0.00457 -0.00457,-0.014813 0,-0.019382 0.040101,-0.040101 -0.00157,0.06128 0.038763,-0.019381 0.00289,-0.00578 -0.00457,-0.014813 0,-0.019383 0.00457,-0.00457 0.014813,0.00457 0.019381,0 0.012968,-0.012965 0.04016,-0.1342744 0.019381,-0.1550517 -0.00457,-0.00457 -0.013603,0.00291 -0.019381,0 C 1.6882059,3.193216 1.6854679,3.176344 1.6777099,3.168587 1.6672839,3.158161 1.3965379,3.149204 1.3482246,3.149204 c -0.062388,0 0.033087,0.00457 -0.038763,-0.019381 -0.029283,-0.00976 -0.066878,0.0075 -0.096908,0 -0.01982,-0.00495 -0.037992,-0.016022 -0.058144,-0.019383 -0.072706,-0.012113 -0.40086985,-0.016073 -0.46515581,0 -0.0140147,0.0035 -0.025058,0.014813 -0.0387632,0.019383 C 0.61274069,3.142409 0.28614727,3.133733 0.26286085,3.11044 0.14782658,2.9954057 0.16595445,2.8354465 0.16595445,2.684048 c 0,-0.1247331 -0.0206479,-0.2675418 0.0193815,-0.3876299 0.11075274,-0.3322537 0.33098323,-0.384429 0.6589707,-0.2907184 0.20194485,0.057698 0.37580405,0.2586937 0.58144465,0.3101039 0.07804,0.01951 0.3488668,0.1120772 0.3488668,-0.038763 0,-0.018374 0.00806,-0.061431 0,-0.077526 C 1.6570311,1.9643394 1.3433865,1.6729891 1.1156489,1.5211642 0.85900803,1.3500702 0.61877626,1.2075275 0.55358577,0.88157505 0.53772373,0.80226477 0.51482282,0.75081897 0.51482282,0.66837859 c 0,-0.0360545 -0.0194646,-0.18075544 0,-0.21319635 0.0711828,-0.11863813 0.18743949,-0.1356704 0.3101038,-0.1356704 0.0323032,0 0.0674997,-0.013367 0.0969084,0 0.24446978,0.1111224 0.0897913,0.0524517 0.19381498,0.1356704 0.2023614,0.16188902 0.3097843,0.19333559 0.4651557,0.42639281 0.1153397,0.17301035 0.1713404,0.35457085 0.2519594,0.54268165 0.010491,0.024484 0.00747,0.0537 0.019381,0.077526 0.014133,0.028267 0.031005,0.031005 0.038763,0.038763 0.00457,0.00457 -0.00457,0.014813 0,0.019381 0.00442,0.00442 0.1827005,0.030496 0.1938148,0.019381 0.00457,-0.00457 -0.00457,-0.014813 0,-0.019381 0.00457,-0.00457 0.014813,0.00457 0.019382,0 0.051026,-0.051026 -0.017575,-0.24654 -0.038763,-0.3101038 -0.013707,-0.041123 -0.011385,-0.234789 -0.019381,-0.29072233 -0.00377,-0.0263701 -0.016078,-0.0510949 -0.019381,-0.0775263 -0.00887,-0.0709258 -0.018747,-0.62210796 0,-0.67835216 0.02216,-0.0664797 0.02871,-0.0455784 0.038763,-0.0581445 0.023533,-0.029416 0.035542,-0.06677071 0.058145,-0.09690738 0.054455,-0.07260536 0.1221318,-0.10726358 0.1938149,-0.15505193 0.015204,-0.0101364 0.020844,-0.0351794 0.038763,-0.038763 0.031675,-0.006335 0.064605,0 0.096907,0 0.028708,0 0.091728,-0.00614 0.1162894,0 0.016649,0.004163 0.2158462,0.15770184 0.2325777,0.17443341 0.016471,0.01647129 0.024212,0.03995524 0.038763,0.05814449 0.057089,0.07136183 0.133245,0.15020146 0.1744332,0.23257785 0.011909,0.0238249 0.010035,0.0525846 0.019381,0.0775263 0.010144,0.0270531 0.031757,0.0494968 0.038763,0.0775263 0.00627,0.0250707 -0.00425,0.0520357 0,0.0775263 0.00236,0.014249 0.015876,0.0247478 0.019381,0.0387632 0.011003,0.044012 0.031665,0.18290344 0.038763,0.23257793 0.024306,0.17015031 0,0.40228212 0,0.58144462 0,0.00798 -0.00513,0.053014 0,0.058145 0.00457,0.00457 0.014813,-0.00457 0.019382,0 0.00914,0.00914 -0.00578,0.027206 0,0.038763 0.00762,0.015242 0.029851,0.068615 0.038763,0.077526 6.756e-4,6.823e-4 0.051243,0.012483 0.058144,0.019381 0.020713,0.020711 -0.027551,0.038763 0.019381,0.038763"
       id="path2" />
    <text
       xml:space="preserve"
       style="font-size:4.05272px;text-align:start;writing-mode:lr-tb;direction:ltr;text-anchor:start;display:none;fill:#000000;fill-opacity:0;stroke:#000000;stroke-width:0.337726;stroke-opacity:1"
       x="1.8866769"
       y="3.7609327"
       id="text26"><tspan
         sodipodi:role="line"
         id="tspan26"
         style="stroke-width:0.337726"
         x="0"
         y="0">v</tspan></text>
    <g
       id="g9"
       transform="matrix(0.99595413,0,0,1.4044742,-0.00413003,-0.75435317)">
      <path
         style="fill:#000000;fill-opacity:0;stroke:#000000;stroke-width:0.762341;stroke-opacity:1"
         d="m 1.8765867,5.1315114 c 0.037021,-0.049362 0.1604312,-0.111067 0.1110686,-0.1480908 -0.049362,-0.037019 -0.1546968,0.1917172 -0.1110686,0.1480908 0.056788,-0.056788 0.382685,-0.3868391 0.4812901,-0.518312 0.0074,-0.00989 -0.00874,-0.028293 0,-0.037019 C 2.4663683,4.4676864 2.6074198,4.3765443 2.7280997,4.2799986 2.820648,4.2059576 2.8576832,4.0948838 2.9502338,4.0208436 3.080684,3.9164829 3.2285381,3.8321172 3.3574792,3.7246652 3.4763,3.6256452 3.5994595,3.5510016 3.7277019,3.4655097 c 0.029044,-0.019367 0.040931,-0.063007 0.074048,-0.074043 0.023437,-0.00779 0.051127,0.00916 0.074043,0 0.066357,-0.026537 0.1132385,-0.093099 0.1851102,-0.1110693 0.023952,-0.00598 0.050631,0.00779 0.074043,0 0.016568,-0.00553 0.024692,-0.024692 0.037022,-0.037022 0.024692,-0.012325 0.047274,-0.030329 0.074043,-0.037022 0.023952,-0.00598 0.051357,0.00971 0.074043,0 0.091449,-0.039191 0.1615961,-0.128579 0.2591549,-0.1480909 0.036306,-0.00725 0.075152,0.00901 0.1110693,0 0.069811,-0.017449 0.1159202,-0.0913 0.1851103,-0.111067 0.0356,-0.01018 0.076693,0.013747 0.1110693,0 0.03241,-0.012979 0.041638,-0.061082 0.074043,-0.074043 0.034374,-0.013747 0.074547,0.00607 0.1110693,0 0.1052456,-0.017562 0.098787,-0.039514 0.185108,-0.074043 0.1678782,-0.067152 0.3448356,-0.045134 0.5183125,-0.074045 0.1162158,-0.019367 0.2196691,-0.05134 0.3332006,-0.074048 0.2132856,-0.042658 0.484426,0 0.703424,0 0.3332,0 0.6664014,0 0.9996022,0 0.064357,0 0.4173283,-0.012618 0.518312,0 0.077447,0.00968 0.1459443,0.057111 0.2221341,0.074048 0.073278,0.016275 0.1509193,0.013295 0.2221318,0.037022 0.1276513,0.085099 0.082788,0.069265 0.2221341,0.1110693 0.1924328,0.05773 0.3675785,0.1147035 0.5553345,0.1851102 0.1589258,0.059599 0.3176695,0.1812278 0.48129,0.2221319 0.271271,0.067818 0.869,0.3942218 1.110669,0.5553342 0.03382,0.02255 0.08984,0.031602 0.111069,0.074048 0.0055,0.011038 -0.01104,0.031505 0,0.037022 0.02205,0.011038 0.05197,-0.011038 0.07405,0 0.01104,0.00553 -0.0087,0.028293 0,0.037022 0.04363,0.043631 0.09675,0.076842 0.148091,0.1110693 0.05745,0.038302 0.0241,-0.06289 0.07405,0.037019 0.0112,0.02246 0.02149,0.095553 0.03702,0.111067 0.04196,0.041961 0.11741,0.049705 0.148091,0.1110693 0.0055,0.011038 0,0.024692 0,0.037019 0.01232,0.024692 0.02171,0.051087 0.03702,0.074048 0.02723,0.040839 0.0892,0.06733 0.111069,0.1110671 0.0055,0.011038 -0.0087,0.028293 0,0.037019 0.0087,0.00874 0.02829,-0.00874 0.03702,0 0.01232,0.012325 0.02469,0.098726 0.03702,0.1110693 0.01851,0.01851 0.05554,0.01851 0.07405,0.037019 0.01244,0.012438 0.158205,0.2860611 0.148091,0.2961789 -0.0087,0.00874 -0.02829,-0.00874 -0.03702,0 -0.0087,0.00874 0.0055,0.025988 0,0.037019 -0.02341,0.04683 -0.08202,0.067506 -0.111069,0.1110693 -0.02165,0.032469 -0.0154,0.078596 -0.03702,0.1110693 -0.02847,0.042717 -0.08259,0.06835 -0.111067,0.111067 -0.09604,0.1440572 -0.198548,0.2607976 -0.296179,0.4072457 -0.0567,0.085052 -0.02115,-0.015891 -0.111069,0.074048 -0.04528,0.045283 -0.05484,0.1059227 -0.11107,0.1480909 -0.03559,0.02671 -0.07961,0.042586 -0.111067,0.074048 -0.01952,0.019525 -0.01754,0.054531 -0.03702,0.074048 -0.180061,0.1800606 -0.461522,0.3646519 -0.666402,0.518312 -0.02469,0.024692 -0.04936,0.049362 -0.07405,0.074048 0,0.012325 0.0087,0.028293 0,0.037019 -0.0087,0.00874 -0.02677,-0.00686 -0.03702,0 -0.07974,0.053157 -0.125286,0.1158073 -0.222134,0.1480909 -0.02469,0.00822 -0.09582,0.021805 -0.11107,0.037019 -0.0087,0.00874 0.0087,0.028293 0,0.037019 -0.03112,0.031119 -0.7563526,0.3321591 -0.8515126,0.3702227 -0.054667,0.021873 -0.1728623,0.01237 -0.2221341,0.037019 -0.034611,0.017313 -0.1151211,0.065804 -0.1480909,0.074048 -0.1163536,0.029089 -0.1283442,-0.00989 -0.2221318,0.037019 -0.068086,0.034044 -0.2076266,-0.025758 -0.3332013,0.037019 -0.078982,0.039486 -0.2171975,-0.039489 -0.2961782,0 -0.1308114,0.065402 -0.2471289,-0.00404 -0.3702227,0.037019 -0.016568,0.00546 -0.021399,0.029223 -0.037019,0.037019 -0.06149,0.030746 -0.6071706,0 -0.7034243,0 -0.1667382,0 -0.8048281,0.040243 -0.9255579,0 -0.016568,-0.00549 -0.020451,-0.0315 -0.037022,-0.037019 -0.063346,-0.021105 -0.3460825,-0.00639 -0.4072454,-0.037019 -0.1822006,-0.091102 -0.4161314,-0.097 -0.5923568,-0.1851103 -0.029618,-0.014808 -0.081449,0.014808 -0.1110693,0 -0.059956,-0.029983 -0.1245452,-0.09088 -0.1851102,-0.111067 -0.035123,-0.011693 -0.077953,0.016568 -0.1110693,0 -0.062951,-0.031478 -0.1250599,-0.081041 -0.1851102,-0.1110693 -0.029618,-0.014808 -0.081449,0.014808 -0.111067,0 C 4.325864,7.1891432 4.314261,7.1463292 4.283036,7.1307152 4.2346524,7.1065176 4.186832,7.110987 4.1349417,7.0936963 4.025308,7.057151 3.9343082,6.9722819 3.8387635,6.9085861 3.7958956,6.8800022 3.6384709,6.8193582 3.6166294,6.7975168 c -0.00874,-0.00874 0.00874,-0.028293 0,-0.037019 -0.046617,-0.046617 -0.258913,-0.073802 -0.2961783,-0.1110693 -0.00874,-0.00874 0.00874,-0.028293 0,-0.037019 -0.017449,-0.017449 -0.056592,0.017449 -0.074048,0 -0.00874,-0.00874 0.00874,-0.028295 0,-0.037019 -0.017449,-0.017449 -0.056592,0.017449 -0.074043,0 -0.00874,-0.00874 0.00874,-0.028293 0,-0.037019 -0.017449,-0.017449 -0.056592,0.017449 -0.074043,0 -0.00874,-0.00874 0.00874,-0.028293 0,-0.037019 -0.034582,-0.034581 -0.1505288,-0.039468 -0.1851102,-0.074048 -0.00874,-0.00874 0.00874,-0.028293 0,-0.037019 C 2.892327,6.3694039 2.6749384,6.263084 2.6540516,6.2421929 2.6520466,6.240211 2.5820151,6.1331325 2.5800084,6.1311258 2.5585417,6.1096591 2.4533774,6.0785403 2.4319197,6.0570781 2.4299148,6.055096 2.3598833,5.9480178 2.3578766,5.9460088 2.3334348,5.921567 2.2391709,5.8937032 2.2097879,5.8349418 c -0.00553,-0.011038 0.00874,-0.028293 0,-0.037019 -0.00874,-0.00874 -0.02599,0.00546 -0.037022,0 C 2.1205013,5.7717877 2.1178143,5.7250418 2.0987191,5.6868532 2.0503543,5.5901219 1.8395637,5.4553121 1.8395637,5.3906748 c 0,-0.087264 0.024692,-0.1727697 0.037021,-0.2591552 z"
         id="path26" />
      <path
         style="display:none;fill:#000000;fill-opacity:0;stroke:#000000;stroke-width:0.762341;stroke-opacity:1"
         d="m 7.4299332,7.1307161 c -0.049362,0 -0.1480909,-0.049362 -0.1480909,0 0,0.049362 0.197453,0 0.1480909,0 -0.148118,0 -0.8002208,0.025643 -0.9255583,-0.037019 -0.031218,-0.01562 -0.042823,-0.058434 -0.074048,-0.074048 -0.022054,-0.011038 -0.051132,0.00916 -0.074048,0 -0.041311,-0.016546 -0.069752,-0.05752 -0.1110671,-0.074048 -0.022898,-0.00916 -0.053509,0.013679 -0.074048,0 C 6.1481924,6.930297 6.1536257,6.89107 6.1341431,6.8715536 6.1065412,6.8439516 6.0555493,6.856159 6.0230738,6.8345343 5.9162862,6.7633402 5.790947,6.713468 5.6898809,6.6124041 5.5325999,6.4551233 5.4134521,6.2816794 5.3196579,6.094092 5.3040379,6.062874 5.2566529,6.053163 5.2456129,6.020044 c -0.00779,-0.023437 0.00781,-0.050628 0,-0.074048 -0.021738,-0.065287 -0.086354,-0.1109722 -0.1110693,-0.1851102 -0.00781,-0.023437 0.011038,-0.051972 0,-0.074048 -0.037365,-0.074732 -0.089648,-0.1364523 -0.1110693,-0.2221318 -0.011986,-0.047888 0.01562,-0.1012569 0,-0.1480886 -0.00553,-0.016568 -0.032789,-0.020067 -0.037022,-0.037019 -0.047841,-0.1913651 0,-0.475991 0,-0.6664015 0,-0.2384377 -0.037082,-0.5181292 0.037022,-0.7404461 0.015914,-0.047678 0.095176,-0.1004149 0.1110693,-0.1480909 0.00779,-0.023412 -0.00781,-0.050631 0,-0.074043 0.015304,-0.045884 0.085643,-0.1469713 0.1110693,-0.185108 0.048405,-0.072605 0.1234098,-0.1234098 0.1851102,-0.1851102 0.068183,-0.068183 0.1424364,-0.1690023 0.2221318,-0.2221318 0.076623,-0.051084 0.1728623,-0.04941 0.2221318,-0.074045 0.011038,-0.00553 -0.011038,-0.031502 0,-0.037022 0.022054,-0.011038 0.051972,0.011038 0.074043,0 0.011038,-0.00553 -0.00874,-0.028293 0,-0.037022 0.017449,-0.017449 0.051972,0.011038 0.074043,0 0.01562,-0.00779 0.021399,-0.029216 0.037022,-0.037022 0.049362,-0.024692 0.1357481,0.024692 0.1851102,0 0.053457,-0.02674 0.094636,-0.047319 0.1480909,-0.074043 0.049362,-0.024692 0.1357481,0.024692 0.1851102,0 0.01562,-0.00781 0.021399,-0.029216 0.037019,-0.037022 0.03304,-0.016501 0.6339137,-0.010835 0.6664011,0 0.099571,0.033189 0.1945862,0.08567 0.2961783,0.1110692 0.047888,0.011986 0.1012592,-0.01562 0.1480887,0 0.1140331,0.03801 0.2255109,0.1312652 0.3332,0.1851103 0.059233,0.029618 0.088853,0.1184709 0.1480908,0.1480909 0.02246,0.011196 0.095553,0.021489 0.1110693,0.037021 0.00874,0.00874 -0.00546,0.025988 0,0.037022 0.026135,0.052263 0.072881,0.054951 0.1110671,0.074043 0.068161,0.03408 0.00589,0.076987 0.074048,0.1110693 0.011038,0.00553 0.028293,-0.00874 0.037019,0 0.00874,0.00874 -0.00686,0.026767 0,0.037022 0.061016,0.091526 0.15605,0.1710451 0.2221318,0.2591552 0.045236,0.060317 0.051771,0.1553097 0.074048,0.2221318 0.034554,0.1036632 0.1135343,0.1925186 0.1480909,0.2961787 0.00781,0.023412 -0.011038,0.051971 0,0.074048 0.030227,0.060454 0.050164,0.1134665 0.074048,0.1851102 0.038566,0.1157012 -0.013747,0.8323752 -0.037019,0.9255579 -0.015982,0.06394 -0.053157,0.1224437 -0.074048,0.1851102 -0.01851,0.055529 0.037019,0.037019 0,0.111067 -0.00546,0.011038 -0.030173,-0.010248 -0.037019,0 -0.1191864,0.1787786 0.01,0.044026 -0.037019,0.1851102 -0.00546,0.016568 -0.024692,0.024692 -0.037019,0.037019 -0.012325,0.037019 -0.027546,0.073208 -0.037019,0.1110693 -0.00494,0.019729 0.013589,0.097492 0,0.1110693 -0.00874,0.00874 -0.028293,-0.00874 -0.037019,0 C 8.749133,6.2187764 8.702768,6.3251148 8.688696,6.353254 8.664597,6.401413 8.4728868,6.6431075 8.429541,6.6864546 8.408074,6.7079216 8.30291,6.7390406 8.2814501,6.7605026 c -0.00874,0.00874 0.00546,0.025988 0,0.037019 -0.077041,0.1540772 0.0026,-0.039581 -0.074048,0.037019 -0.01851,0.01851 -0.01851,0.055538 -0.037019,0.074048 -0.012325,0.012325 -0.098726,0.024692 -0.1110693,0.037019 -0.00874,0.00874 0.00874,0.028293 0,0.037019 -0.012325,0.012325 -0.098724,0.024692 -0.111067,0.037019 -0.00874,0.00874 0.00874,0.028293 0,0.037019 -0.030852,0.030852 -0.1542601,-0.030852 -0.1851103,0 -0.00874,0.00874 0.00874,0.028293 0,0.037019 -0.017449,0.017449 -0.049552,-0.00307 -0.074048,0 -0.086589,0.010835 -0.1727697,0.024692 -0.2591554,0.037019 z"
         id="path27" />
      <path
         style="fill:#000000;fill-opacity:0;stroke:#000000;stroke-width:0.762341;stroke-opacity:1"
         d="m 2.3305685,4.3678249 c -0.037392,0 -0.1121776,-0.037394 -0.1121776,0 0,0.037394 0.1495694,0 0.1121776,0 -0.084133,0 -0.1682642,0 -0.2523989,0 -0.132873,0 -0.4617375,0.033049 -0.5608873,0 C 1.4559833,4.3473965 1.3801117,4.2885019 1.3209724,4.2556473 1.2587377,4.2210703 1.1816156,4.2142308 1.1246614,4.1715118 1.0612043,4.1239194 1.0183351,4.0527971 0.95639516,4.0032431 0.94007279,3.9901961 0.91508722,3.9899929 0.90030635,3.9752078 0.84278756,3.9176833 0.80618334,3.8199952 0.76008388,3.7508458 0.54734143,3.4317323 0.47964029,2.9497042 0.47964029,2.5729824"
         id="path30" />
      <path
         style="fill:#000000;fill-opacity:0;stroke:#000000;stroke-width:0.762341;stroke-opacity:1"
         d="m 4.4338956,3.3301838 c -0.1270463,-0.030119 -0.7310064,0.041141 -0.8132866,0 C 3.596951,3.3183778 3.58817,3.2859188 3.564522,3.2740948 3.521887,3.2527638 3.466933,3.2673648 3.4243022,3.2460598 3.3676222,3.2177058 3.2799381,3.1728428 3.2279891,3.1338822 c -0.021151,-0.015891 -0.032439,-0.044265 -0.056086,-0.056089 -0.016726,-0.00835 -0.039367,0.00835 -0.056087,0 C 3.0597255,3.0497578 3.0737499,3.0217021 3.0316833,2.9936577 2.9343256,2.9287504 2.8165407,2.8737875 2.7512339,2.7692964 2.5640246,2.4697616 2.4707903,2.0820854 2.4707903,1.731655"
         id="path31" />
      <path
         style="fill:#000000;fill-opacity:0;stroke:#000000;stroke-width:0.762341;stroke-opacity:1"
         d="m 2.3305685,6.1346203 c -0.3650813,0.040306 -0.8204288,-0.107417 -1.1498191,0.1121776 -0.037393,0.028033 -0.074785,0.056084 -0.1121774,0.084133 0,0.00935 0.00661,0.021422 0,0.028035 -0.03305,0.033049 -0.0912746,0.042326 -0.11217738,0.084133 -0.0565581,0.1131167 -0.11502766,0.238607 -0.14022202,0.3645768 -0.009167,0.045832 0.011336,0.094878 0,0.1402198 -0.005068,0.02027 -0.0229761,0.035805 -0.0280435,0.056084 -0.0105099,0.042035 0.0136904,0.099151 0,0.1402198 -0.0142795,0.042836 -0.0280435,0.032733 -0.0280435,0.084133"
         id="path33" />
      <path
         style="fill:#000000;fill-opacity:0;stroke:#000000;stroke-width:0.762341;stroke-opacity:1"
         d="M 3.620609,6.9198623 C 3.4111225,6.9193354 3.1783639,6.8864298 3.0036328,7.0320399 2.9094931,7.110487 2.861447,7.2022701 2.7792776,7.2844384 2.7276492,7.3360668 2.6626373,7.3730342 2.6110134,7.4246582 2.5430694,7.4925999 2.500522,7.6000237 2.4427492,7.6770564 2.3436006,7.8092561 2.1623043,7.9573059 2.1623043,8.1257662"
         id="path34" />
      <path
         style="fill:#000000;fill-opacity:0;stroke:#000000;stroke-width:0.762341;stroke-opacity:1"
         d="m 5.8080698,7.7331493 c -0.2991399,0 -0.5982801,0 -0.8974198,0 -0.033925,0 -0.1073628,-0.00822 -0.1402197,0 -0.06991,0.017471 -0.084345,0.07493 -0.1402198,0.1121776 -0.00776,0.00519 -0.018713,0 -0.028035,0 -0.018713,0.00935 -0.039367,0.015485 -0.056089,0.028035 -0.1884826,0.141362 -0.3550723,0.3531719 -0.5047983,0.5328432 -0.035058,0.042067 -0.042067,0.028035 -0.084133,0.084133 -0.043771,0.058366 -0.036064,0.080154 -0.056086,0.1402198 -0.00835,0.025067 -0.044263,0.032437 -0.056089,0.056084 -0.018848,0.037676 -0.1121776,0.2089719 -0.1121776,0.2523985"
         id="path35" />
      <path
         style="fill:#000000;fill-opacity:0;stroke:#000000;stroke-width:0.762341;stroke-opacity:1"
         d="m 5.1837204,2.6009769 c -0.092828,-0.020112 -0.1974688,0.0186 -0.2906022,0 C 4.7888998,2.5801422 4.6875435,2.5011827 4.602516,2.4445002 c -0.00621,-0.00411 -0.014898,0 -0.022347,0 C 4.557799,2.4296022 4.532103,2.4188012 4.513105,2.3997902 4.501322,2.3880072 4.502541,2.3668632 4.490758,2.3550802 4.471752,2.3360742 4.442692,2.3293792 4.423694,2.3103722 4.31139,2.1980682 4.427174,2.2868132 4.35663,2.1986009 4.336901,2.1739089 4.305832,2.1586449 4.289566,2.1315369 c -0.00767,-0.012799 0.00474,-0.03057 0,-0.04471 C 4.2779873,2.0521065 4.2356182,2.014401 4.2225035,1.9750567 4.205619,1.9244418 4.2103593,1.8696689 4.2001564,1.81858 4.1912364,1.773868 4.1643894,1.729169 4.1554464,1.6844571 c -0.018623,-0.09314 0.018622,-0.1974597 0,-0.2906022 -0.0033,-0.01632 -0.017088,-0.028902 -0.02237,-0.04471 -0.022898,-0.068745 0,-0.1956517 0,-0.2682486"
         id="path36" />
    </g>
    <path
       style="fill:#000000;fill-opacity:0;stroke:#000000;stroke-width:1.1826875;stroke-opacity:1;stroke-dasharray:none"
       d="m 7.5722574,9.5603403 c -0.038982,0 -0.1169461,-0.038982 -0.1169461,0 0,0.038982 0.155928,0 0.1169461,0 -0.2631286,0 -0.5262573,0 -0.7893859,0 -0.1388528,0 -0.3012035,0.017169 -0.4385477,0 C 6.241689,9.5475106 6.1501702,9.4971837 6.0519584,9.4726309 5.9819566,9.4551314 5.9172239,9.4491174 5.847303,9.4141577 5.7861398,9.3835761 5.5086681,9.2217054 5.4672282,9.1802655 c -0.015409,-0.015409 -0.011105,-0.046385 -0.029236,-0.058473 -0.016216,-0.010811 -0.039982,0.00616 -0.058473,0 -0.095886,-0.031962 -0.5093411,-0.492425 -0.555494,-0.5847302 -0.060837,-0.1216755 0.00201,0.031255 -0.058473,-0.029236 -0.01225,-0.012253 -0.020376,-0.06999 -0.029236,-0.08771 -0.012327,-0.024654 -0.046146,-0.033819 -0.058473,-0.058473 -0.017939,-0.035875 -0.032022,-0.077269 -0.058473,-0.1169458 -0.02249,-0.033735 -0.06522,-0.053975 -0.08771,-0.08771 -0.037989,-0.056984 -0.059514,-0.1190283 -0.087709,-0.175419 -0.012327,-0.024654 -0.046146,-0.033819 -0.058473,-0.058473 -0.019227,-0.038454 -0.015132,-0.074627 -0.029237,-0.1169461 -0.0097,-0.029115 -0.048768,-0.058595 -0.058473,-0.087709 -0.00616,-0.018492 0.00616,-0.039982 0,-0.058473 -0.0097,-0.029115 -0.048768,-0.058595 -0.058473,-0.087709 -0.017029,-0.051085 -0.012208,-0.095097 -0.029236,-0.1461825 -0.012261,-0.036782 -0.044094,-0.073809 -0.058473,-0.1169461 -0.014586,-0.043755 0.011208,-0.1013492 0,-0.1461826 -0.061747,-0.2469888 -0.058473,-0.526433 -0.058473,-0.7893859 0,-0.2212631 -0.010575,-0.4360558 0.058473,-0.6432034 0.00862,-0.025871 -0.012414,-0.050468 0,-0.08771 0.00436,-0.013076 0.024879,-0.016161 0.029236,-0.029236 0.022214,-0.066644 0.016227,-0.1412862 0.058473,-0.2046555 0.016936,-0.025403 0.049108,-0.059616 0.058473,-0.08771 0.00616,-0.018492 -0.00616,-0.039982 0,-0.058473 0.01401,-0.042032 0.073347,-0.073859 0.087709,-0.1169461 0.00616,-0.018492 -0.00616,-0.039982 0,-0.058473 0.018283,-0.05485 0.085053,-0.098343 0.1169461,-0.1461826 0.042081,-0.063121 0.053237,-0.1357109 0.08771,-0.2046554 0.012327,-0.024654 0.046146,-0.033819 0.058473,-0.058473 0.015526,-0.03105 0.00317,-0.090884 0.029236,-0.1169459 0.00689,-0.00689 0.022347,0.00689 0.029237,0 0.022606,-0.022606 0.097084,-0.1941689 0.1169458,-0.2338922 0.034257,-0.068513 0.4173249,-0.480201 0.4677844,-0.4970208 0.018492,-0.00616 0.039982,0.00616 0.058473,0 0.037738,-0.012578 0.1574284,-0.1225688 0.2046558,-0.1461826 0.017433,-0.00872 0.04104,0.00872 0.058473,0 0.095107,-0.047554 0.1972582,-0.069393 0.2923651,-0.116946 0.026151,-0.013076 0.059973,0.00924 0.08771,0 0.038982,-0.012994 0.07951,-0.039755 0.1169461,-0.058473 0.023389,-0.011694 0.06432,0.011695 0.08771,0 0.091576,-0.045788 0.2003319,-0.041693 0.2923651,-0.08771 0.062868,-0.031434 0.34999,0 0.4385476,0 0.1130292,0 0.4621906,-0.031101 0.5554938,0 0.013076,0.00436 0.01691,0.023072 0.029236,0.029237 0.024342,0.012171 0.098401,-0.018545 0.1169461,0 0.00689,0.00689 -0.00689,0.022347 0,0.029237 0.018545,0.018545 0.092604,-0.012171 0.1169461,0 0.1733439,0.086672 0.3656047,0.099463 0.5554938,0.175419 0.194487,0.077795 0.3223485,0.2342655 0.4970208,0.3216016 0.039158,0.019579 0.040511,0.069748 0.058473,0.08771 0.01225,0.01225 0.069991,0.020378 0.08771,0.029236 0.053825,0.026912 0.00465,0.060797 0.058473,0.08771 0.095707,0.047853 0.2226162,0.1701297 0.2923651,0.2631286 0.064413,0.014724 0.015454,0.060145 0.029237,0.087709 0.023143,0.046286 0.088111,0.073694 0.1169459,0.1169461 0.02645,0.039677 0.040535,0.081071 0.058473,0.1169461 0.017542,0.035084 0.070168,0.052626 0.087709,0.08771 0.017418,0.034835 0.032071,0.1197804 0.058473,0.1461826 0.00689,0.00689 0.022344,-0.00689 0.029236,0 0.013782,0.013782 -0.00872,0.04104 0,0.058473 0.022183,0.044364 0.089895,0.1213168 0.1169461,0.175419 0.00872,0.017433 -0.00872,0.04104 0,0.058473 0.017029,0.034057 0.041445,0.053653 0.058473,0.08771 0.00872,0.017433 -0.013782,0.044691 0,0.058473 0.00689,0.00689 0.022347,-0.00689 0.029237,0 0.013782,0.013782 -0.013782,0.044691 0,0.058473 0.00689,0.00689 0.022347,-0.00689 0.029236,0 0.016743,0.016743 0.020243,0.089969 0.029236,0.1169461 0.013782,0.041347 0.044691,0.075599 0.058473,0.1169461 0.00617,0.018492 -0.00872,0.04104 0,0.058473 0.00617,0.012327 0.024879,0.016161 0.029237,0.029236 0.03216,0.09648 -0.032161,0.225121 0,0.3216016 0.0044,0.013076 0.02307,0.01691 0.02924,0.029236 0.02587,0.051746 0,0.6152748 0,0.7016766 0,0.3323582 0.06252,0.7520509 -0.08771,1.0525144 C 9.9036939,8.0550183 9.798271,8.1781549 9.735763,8.3031713 9.674925,8.4248466 9.737773,8.2719163 9.67729,8.3324073 c -0.01225,0.012253 -0.020376,0.06999 -0.029236,0.08771 -0.032322,0.064644 -0.018145,0.00907 -0.058473,0.029236 -0.064644,0.032322 -0.00907,0.018145 -0.029236,0.058473 -0.024228,0.048456 -0.083811,0.054574 -0.1169461,0.087709 -0.030818,0.030818 -0.027655,0.086128 -0.058473,0.1169461 -0.013782,0.013782 -0.044691,-0.013782 -0.058473,0 -0.017962,0.017963 -0.019314,0.068131 -0.058473,0.08771 -0.051771,0.025884 -0.092058,0.089884 -0.1461826,0.1169461 -0.035875,0.017939 -0.077269,0.032022 -0.1169461,0.058473 -0.057919,-0.00292 -0.013827,0.043064 -0.029236,0.058473 -0.013782,0.013782 -0.04104,-0.00872 -0.058473,0 -0.024654,0.012327 -0.033819,0.046146 -0.058473,0.058473 -0.00872,0.00436 -0.022347,-0.00689 -0.029236,0 -0.00689,0.00689 0.00689,0.022344 0,0.029236 -0.013782,0.013782 -0.044691,-0.013782 -0.058473,0 -0.00689,0.00689 0.00689,0.022344 0,0.029237 -0.010837,0.010837 -0.098883,0.020206 -0.1169458,0.029236 -0.024654,0.012327 -0.033819,0.046146 -0.058473,0.058473 -0.077218,0.038609 -0.155249,0.077624 -0.2338922,0.1169461 -0.017433,0.00872 -0.04104,-0.00872 -0.058473,0 -0.034057,0.017029 -0.053653,0.041445 -0.08771,0.058473 -0.017433,0.00872 -0.044691,-0.013782 -0.058473,0 -0.00689,0.00689 0.00689,0.022344 0,0.029236 -0.013782,0.013782 -0.04104,-0.00872 -0.058473,0 -0.07997,0.039985 -0.1539229,0.076961 -0.2338922,0.1169461 -0.017253,0.00863 -0.068059,0 -0.08771,0 -0.068219,0 -0.1364372,0 -0.2046555,0 z"
       id="path9" />
  </g>
</svg>
