<?xml version="1.0" encoding="UTF-8" standalone="no"?>
<!-- Created with Inkscape (http://www.inkscape.org/) -->

<svg
   width="48"
   height="48"
   viewBox="0 0 12.7 12.7"
   version="1.1"
   id="svg1"
   sodipodi:docname="refresh.svg"
   inkscape:version="1.4 (e7c3feb1, 2024-10-09)"
   inkscape:export-filename="Refresh-web.png"
   inkscape:export-xdpi="96"
   inkscape:export-ydpi="96"
   xmlns:inkscape="http://www.inkscape.org/namespaces/inkscape"
   xmlns:sodipodi="http://sodipodi.sourceforge.net/DTD/sodipodi-0.dtd"
   xmlns="http://www.w3.org/2000/svg"
   xmlns:svg="http://www.w3.org/2000/svg">
  <sodipodi:namedview
     id="namedview1"
     pagecolor="#505050"
     bordercolor="#eeeeee"
     borderopacity="1"
     inkscape:showpageshadow="0"
     inkscape:pageopacity="0"
     inkscape:pagecheckerboard="0"
     inkscape:deskcolor="#505050"
     inkscape:document-units="mm"
     inkscape:zoom="3.4661519"
     inkscape:cx="-51.065274"
     inkscape:cy="80.492721"
     inkscape:window-width="1728"
     inkscape:window-height="1051"
     inkscape:window-x="0"
     inkscape:window-y="38"
     inkscape:window-maximized="1"
     inkscape:current-layer="layer1" />
  <defs
     id="defs1" />
  <g
     inkscape:label="Layer 1"
     inkscape:groupmode="layer"
     id="layer1">
    <g
       id="g1"
       transform="translate(-0.0226219,-0.14791704)">
      <path
         style="fill:#000000;fill-opacity:0;stroke:#000000;stroke-width:1.1034"
         d="M 1.8431229,6.1797966 C 1.8570349,5.8385387 1.8029155,5.4886797 1.8889682,5.1537324 1.9239468,5.0175835 1.9749224,4.8604262 2.0265041,4.7299233 2.0875253,4.5755382 2.1960513,4.4386708 2.2557307,4.2838086 2.3540517,4.0286756 2.508974,3.7769694 2.6912611,3.5700249 2.7587762,3.4933772 2.8086195,3.4017569 2.8746424,3.3246618 3.0309218,3.1421735 3.1900655,2.9647897 3.3789409,2.8116297 3.6329477,2.605654 3.9258468,2.4455542 4.2041565,2.276292 4.2365545,2.256589 4.2624505,2.22743 4.2958475,2.209375 4.3318175,2.18993 4.3722565,2.179634 4.4104609,2.164763 4.4715879,2.135022 4.5348096,2.109049 4.593842,2.07554 4.687663,2.022284 4.7670545,1.961879 4.8689139,1.9193998 5.382692,1.7051352 5.9182292,1.6071195 6.4734999,1.6071195 c 0.1153812,0 0.3318629,-0.028822 0.4355305,0 0.02649,0.00736 0.042633,0.036134 0.068768,0.044612 0.021746,0.00705 0.045845,0 0.068768,0 0.030564,0.00743 0.062733,0.010229 0.091691,0.022305 0.025322,0.01056 0.043446,0.034051 0.068768,0.044612 0.1402624,0.058495 0.2937843,0.097027 0.4355304,0.1561402 0.218243,0.091016 0.4315214,0.1876482 0.6418344,0.2899747 0.077938,0.03792 0.1547463,0.1126547 0.2292267,0.1561401 0.092197,0.05383 0.1972037,0.1026735 0.2750719,0.1784459 0.027015,0.026288 0.041753,0.062935 0.068768,0.089223 0.046154,0.044912 0.1285504,0.093818 0.1833812,0.1338344 0.044136,0.032211 0.083655,0.096179 0.1146135,0.1338344 0.070215,0.085407 -0.042417,-0.063581 0.068767,0.044612 0.012081,0.011756 0.012671,0.031312 0.022924,0.044612 0.086949,0.112811 0.1842155,0.2240722 0.2750719,0.3345861 0.020251,0.024632 0.052089,0.039867 0.068767,0.066917 0.017581,0.028514 0.02689,0.061557 0.045845,0.089223 0.023975,0.034996 0.069453,0.053156 0.091691,0.089223 0.012431,0.020162 0.010492,0.046756 0.022922,0.066917 0.011117,0.018033 0.034727,0.026579 0.045845,0.044612 0.037381,0.060625 0.059035,0.1372004 0.09169,0.2007517 0.053392,0.1038936 0.1631916,0.2297076 0.2063046,0.334586 0.01795,0.043661 0.02099,0.093511 0.04584,0.1338346 0.01111,0.018034 0.03782,0.025085 0.04584,0.044612 0.0085,0.02071 -0.0055,0.045278 0,0.066917 0.01492,0.058079 0.154607,0.2422809 0.183381,0.3122804 0.0056,0.013807 -0.0057,0.030805 0,0.044612 0.01023,0.024891 0.03353,0.042939 0.04584,0.066917 0.01891,0.036797 0.02656,0.0963 0.04584,0.1338345 0.01335,0.025983 0.0325,0.040934 0.04584,0.066917 0.02185,0.042522 0.02451,0.1146022 0.04584,0.1561402 0.03556,0.069206 0.07906,0.1315461 0.114613,0.2007519 0.0084,0.016409 0.01555,0.082057 0.02293,0.089223 0.0054,0.00526 0.01751,-0.00526 0.02292,0 0.0085,0.00828 0.01973,0.1976462 0.02292,0.2007515 0.03193,0.031065 0.01936,-0.1011208 0.02293,-0.1115285 0.01411,-0.041194 0.110392,-0.2189488 0.137536,-0.2453632 0.0054,-0.00526 0.01751,0.00526 0.02293,0 0.08946,-0.087053 -0.0053,-0.011981 0.02293,-0.066917 0.01701,-0.033114 0.06007,-0.077652 0.06877,-0.1115288 0.0056,-0.02164 -0.0056,-0.045278 0,-0.066917 0.0074,-0.028995 0.07923,-0.085309 0.09169,-0.1338345 0.02229,-0.086758 0.04256,-0.1784184 0.06877,-0.2676688 -0.01382,-0.040372 0.03713,-0.041485 0.04584,-0.066917 0.0097,-0.028215 -0.0073,-0.06037 0,-0.089223 0.0154,-0.059985 0.03044,-0.1184623 0.04584,-0.1784459 0.01224,-0.047645 -0.01595,-0.109576 0,-0.1561403 0.0034,-0.00997 0.0195,-0.01233 0.02292,-0.022304 0.0067,-0.019689 0,-0.06579 0,-0.089223 0,-0.058464 -0.02634,-0.1941003 0,-0.2453629 0.0214,-0.041646 0.02293,-0.060502 0.02293,-0.1115289 0,-0.029741 0,-0.059482 0,-0.089223 0,-0.00743 0.0076,-0.022304 0,-0.022304 -0.01528,0 0,0.02974 0,0.044612 0,0.044612 0,0.089223 0,0.1338345 0,0.074588 -0.04993,0.2389423 -0.06877,0.3122802 -0.01943,0.075628 -0.04997,0.1498948 -0.06877,0.2230574 -0.0083,0.032259 -0.03915,0.056616 -0.04584,0.089223 -0.0045,0.021874 0.0056,0.045278 0,0.066917 -0.0124,0.048265 -0.07547,0.1087943 -0.09169,0.15614 -0.01335,0.038975 -0.0096,0.072554 -0.02293,0.1115288 -0.01018,0.029698 -0.05407,0.060612 -0.06877,0.089223 -0.0069,0.013468 0.01059,0.056605 0,0.066917 -0.0054,0.00526 -0.02051,-0.00705 -0.02293,0 -0.0072,0.02116 0.0045,0.045045 0,0.066917 -0.01817,0.088385 -0.0463,0.1802495 -0.06877,0.2676688 -0.0067,0.026054 -0.01478,0.3935809 -0.02293,0.4015033 -0.0054,0.00526 -0.01752,-0.00526 -0.02293,0 -0.0046,0.00448 -0.0072,0.074026 -0.02292,0.089223 -0.02034,0.019789 -0.210274,0 -0.229226,0 -0.173714,0 -0.364806,-0.014235 -0.527222,-0.066917 -0.05681,-0.018429 -0.1869049,-0.00643 -0.2521484,-0.022304 -0.053494,-0.013012 -0.1065667,-0.056429 -0.1604587,-0.066917 -0.022476,-0.00437 -0.04653,0.00541 -0.068768,0 -0.010482,-0.00255 -0.012439,-0.019755 -0.022924,-0.022306 -0.032009,-0.00779 -0.1246085,-0.022304 -0.1604587,-0.022304 -0.069095,0 -0.3933404,-0.1021545 -0.4584531,-0.1338343 C 8.8622861,5.379167 8.7987668,5.364337 8.7657282,5.332188 8.7536472,5.320432 8.7198832,5.293257 8.7198832,5.309883 c 0,0.00743 0.015674,-0.00237 0.022924,0 0.079019,0.025631 0.016982,0.022305 0.068767,0.022305 0.074865,0 0.1340189,0.010582 0.206304,0.022304 0.08881,0.014403 0.1868572,-0.01717 0.2750719,0 0.091839,0.017873 0.1802309,0.044612 0.2750718,0.044612 0.066479,0 0.1209258,0.029418 0.1833812,0.044612 0.02965,0.00721 0.061721,-0.00584 0.091691,0 0.110323,0.02147 0.2117649,0.040363 0.3209169,0.066917 0.06464,0.015725 0.14166,0.00658 0.206304,0.022306 0.0541,0.013162 0.103501,0.033526 0.160459,0.044612 0.01986,0.00386 0.100546,-0.013689 0.114613,0 0.0054,0.00526 -0.0054,0.017048 0,0.022305 0.01165,0.011333 0.101465,-0.0032 0.114613,0 0.07867,0.019137 0.14915,0.044612 0.229228,0.044612"
         id="path1" />
      <path
         style="fill:#000000;fill-opacity:0;stroke:#000000;stroke-width:1.1034"
         d="m 10.902117,6.816041 c -0.01391,0.341258 0.04021,0.691117 -0.04585,1.026064 -0.03497,0.136149 -0.08595,0.2933062 -0.137532,0.4238091 -0.06102,0.1543851 -0.169547,0.2912525 -0.229226,0.4461147 -0.09832,0.255133 -0.253243,0.5068392 -0.435531,0.7137837 -0.06752,0.076648 -0.1173581,0.168268 -0.1833811,0.2453631 -0.156279,0.1824883 -0.315423,0.3598724 -0.504298,0.5130324 -0.254007,0.205975 -0.5469063,0.366076 -0.825216,0.535338 -0.032398,0.0197 -0.058294,0.04886 -0.091691,0.06692 -0.03597,0.01945 -0.076409,0.02974 -0.1146134,0.04461 -0.061127,0.02974 -0.1243487,0.05571 -0.1833811,0.08922 -0.093821,0.05326 -0.1732125,0.113661 -0.2750719,0.15614 -0.5137781,0.214265 -1.0493153,0.31228 -1.6045858,0.31228 -0.115381,0 -0.331863,0.02882 -0.435531,0 -0.02649,-0.0074 -0.04263,-0.03613 -0.06877,-0.04461 -0.02175,-0.007 -0.04584,0 -0.06877,0 -0.03056,-0.0074 -0.06273,-0.01023 -0.09169,-0.0223 -0.02532,-0.01056 -0.04345,-0.03405 -0.06877,-0.04461 -0.140262,-0.05849 -0.293784,-0.09703 -0.43553,-0.15614 -0.218243,-0.09102 -0.431522,-0.187648 -0.641835,-0.289975 -0.07794,-0.03792 -0.154746,-0.112654 -0.229226,-0.15614 -0.0922,-0.05383 -0.197204,-0.102673 -0.275072,-0.178446 -0.02702,-0.02629 -0.04175,-0.06293 -0.06877,-0.08922 -0.04615,-0.04491 -0.128551,-0.09382 -0.183381,-0.133834 -0.04414,-0.03221 -0.08365,-0.09618 -0.114614,-0.133835 -0.07021,-0.08541 0.04242,0.06358 -0.06877,-0.04461 -0.01208,-0.01176 -0.01267,-0.03131 -0.02292,-0.04461 -0.08695,-0.1128108 -0.184215,-0.224072 -0.2750719,-0.3345859 -0.02025,-0.024632 -0.05209,-0.039867 -0.06877,-0.066917 -0.01758,-0.028514 -0.02689,-0.061557 -0.04584,-0.089223 -0.02398,-0.034996 -0.06945,-0.053156 -0.09169,-0.089223 -0.01243,-0.020162 -0.01049,-0.046756 -0.02292,-0.066917 -0.01112,-0.018033 -0.03473,-0.026579 -0.04584,-0.044612 -0.03738,-0.060625 -0.05903,-0.1372004 -0.09169,-0.2007517 -0.05339,-0.1038936 -0.163191,-0.2297076 -0.206304,-0.334586 -0.01795,-0.043661 -0.02099,-0.093511 -0.04584,-0.1338346 -0.01111,-0.018034 -0.03782,-0.025085 -0.04584,-0.044612 -0.0085,-0.02071 0.0055,-0.045278 0,-0.066917 -0.01492,-0.058079 -0.154607,-0.2422809 -0.183381,-0.3122804 -0.0056,-0.013807 0.0057,-0.030805 0,-0.044612 -0.01023,-0.024891 -0.03353,-0.042939 -0.04584,-0.066917 -0.01891,-0.036797 -0.02656,-0.0963 -0.04584,-0.1338344 -0.01335,-0.02598 -0.0325,-0.04093 -0.04584,-0.06692 -0.02185,-0.04252 -0.02451,-0.114602 -0.04584,-0.15614 -0.03556,-0.06921 -0.07906,-0.131546 -0.114613,-0.200752 -0.0084,-0.01641 -0.01555,-0.08206 -0.02293,-0.08922 -0.0054,-0.0053 -0.01751,0.0053 -0.02292,0 -0.0085,-0.0083 -0.01973,-0.197646 -0.02292,-0.200752 -0.03193,-0.03106 -0.01936,0.101121 -0.02293,0.111529 -0.01411,0.04119 -0.110392,0.218949 -0.137536,0.245363 -0.0054,0.0053 -0.01751,-0.0053 -0.02293,0 -0.08946,0.08705 0.0053,0.01198 -0.02293,0.06692 -0.01701,0.03311 -0.06007,0.07765 -0.06877,0.111529 -0.0056,0.02164 0.0056,0.04528 0,0.06692 -0.0074,0.029 -0.07923,0.08531 -0.09169,0.133834 -0.02229,0.086758 -0.04256,0.1784187 -0.06877,0.2676691 0.01382,0.040372 -0.03713,0.041485 -0.04584,0.066917 -0.0097,0.028215 0.0073,0.06037 0,0.089223 -0.0154,0.059985 -0.03044,0.1184623 -0.04584,0.1784459 -0.01224,0.047645 0.01595,0.109576 0,0.1561403 -0.0034,0.00997 -0.0195,0.01233 -0.02292,0.022304 -0.0067,0.019689 0,0.06579 0,0.089223 0,0.058464 0.02634,0.1941003 0,0.2453629 -0.0214,0.041646 -0.02293,0.060502 -0.02293,0.1115289 0,0.029741 0,0.059482 0,0.089223 0,0.00743 -0.0076,0.022304 0,0.022304 0.01528,0 0,-0.02974 0,-0.044612 0,-0.044612 0,-0.089223 0,-0.1338345 0,-0.074588 0.04993,-0.2389423 0.06877,-0.3122802 0.01943,-0.075628 0.04997,-0.1498948 0.06877,-0.2230574 0.0083,-0.032259 0.03915,-0.056616 0.04584,-0.089223 0.0045,-0.021874 -0.0056,-0.045278 0,-0.066917 0.0124,-0.048265 0.07547,-0.1087943 0.09169,-0.15614 0.01335,-0.038975 0.0096,-0.072554 0.02293,-0.1115288 0.01018,-0.029698 0.05407,-0.060612 0.06877,-0.089223 0.0069,-0.013468 -0.01059,-0.056605 0,-0.066917 0.0054,-0.0053 0.02051,0.007 0.02293,0 0.0072,-0.02116 -0.0045,-0.04504 0,-0.06692 0.01817,-0.08839 0.0463,-0.180249 0.06877,-0.267669 0.0067,-0.02605 0.01478,-0.39358 0.02293,-0.401503 0.0054,-0.0053 0.01752,0.0053 0.02293,0 0.0046,-0.0045 0.0072,-0.07403 0.02292,-0.08922 0.02034,-0.01979 0.210274,0 0.229226,0 0.173714,0 0.364806,0.01423 0.527222,0.06692 0.05681,0.01843 0.186905,0.0064 0.252148,0.0223 0.05349,0.01301 0.106567,0.05643 0.160459,0.06692 0.02248,0.0044 0.04653,-0.0054 0.06877,0 0.01048,0.0025 0.01244,0.01975 0.02292,0.02231 0.03201,0.0078 0.1246079,0.0223 0.1604579,0.0223 0.06909,0 0.393341,0.102155 0.458454,0.133834 0.04097,0.01994 0.104493,0.03477 0.137531,0.06692 0.01208,0.01176 0.04584,0.03893 0.04584,0.02231 0,-0.0074 -0.01567,0.0024 -0.02292,0 -0.07902,-0.02563 -0.01698,-0.02231 -0.06877,-0.02231 -0.07487,0 -0.134019,-0.01058 -0.206304,-0.0223 -0.08881,-0.0144 -0.186858,0.01717 -0.275072,0 -0.09184,-0.01787 -0.1802309,-0.04461 -0.2750719,-0.04461 -0.06648,0 -0.120926,-0.02942 -0.183381,-0.04461 -0.02965,-0.0072 -0.06172,0.0058 -0.09169,0 -0.110323,-0.02147 -0.211765,-0.04036 -0.320917,-0.06692 -0.06464,-0.01572 -0.14166,-0.0066 -0.206304,-0.02231 -0.0541,-0.01316 -0.103501,-0.03353 -0.160459,-0.04461 -0.01986,-0.0039 -0.100546,0.01369 -0.114613,0 -0.0054,-0.0053 0.0054,-0.01705 0,-0.0223 -0.01165,-0.01133 -0.101465,0.0032 -0.114613,0 -0.07867,-0.01914 -0.14915,-0.04461 -0.229228,-0.04461"
         id="path1-9" />
    </g>
  </g>
</svg>
